<svg version="1.1" id="Layer_1" xmlns="http://www.w3.org/2000/svg" xmlns:xlink="http://www.w3.org/1999/xlink" x="0" y="0" viewBox="0 0 432.38 302.49" xml:space="preserve"><style>.st0{clip-path:url(#SVGID_2_)}.st2{fill:#a1863f}.st2,.st3{clip-path:url(#SVGID_4_)}.st4{clip-path:url(#SVGID_6_);fill:#fff}.st6{fill:none;stroke:#a7a7a8;stroke-width:1.515;stroke-miterlimit:10}.st6,.st7{clip-path:url(#SVGID_6_)}.st8{clip-path:url(#SVGID_8_);fill:#a70d16}</style><switch><g><defs><path id="SVGID_1_" d="M0 0h432.38v302.49H0z"/></defs><clipPath id="SVGID_2_"><use xlink:href="#SVGID_1_" overflow="visible"/></clipPath><g class="st0"><defs><path id="SVGID_3_" d="M0 0h432.38v302.49H0z"/></defs><clipPath id="SVGID_4_"><use xlink:href="#SVGID_3_" overflow="visible"/></clipPath><path d="M296.15 167.66c.03-5.01.06-26.38-7.63-37.86-.43-1.16-10.02-13.93-17.21-19.6-8.8-6.95-11.32-12.47-16.11-17.66-1.28-1.39 1.97-9.6-2.29-13.27.3-1.5.86-4.24 1-5.19 1.46-.38 2.94-1.4 3.14-3.89.23-2.9.85-3.94 1.05-5.24 2.4-1.6 4.24-3.11 5.64-6.98.42-1.16 1.14-3.32 2.05-6.81.14-.6.22-6.45.23-6.28.08-.87-.24-3.28-.23-4.86.05-7.48-.47-9.45-2.24-12.05-.15-.23-.59-3.38-2.24-4.73.5 0-2.62-6.12-17.44-8.29-2.12-.29-3.57-1.23-4.41-.91 3.13-3.11 6.27-4.42 9.85-3.97-1.33-.89-3.32-1.38-5.63-1.4 1.32-1.01 2.54-1.83 4.55-2.12.29-.02.88 0 1.5.21 2.35.81 5.04 3.02 6.99 6.07.01-.07.01-.16 0-.25-.01-1.98-1.87-5.17-4.64-6.79-4.33-2.52-8.38-1.3-11.73 1.19-.01.01-.02.02-.03.02-.35.26-.7.54-1.04.83l-.03.03c-.34.3-.68.6-1 .92.66-.67 1.26-1.47 1.39-2.02-1.1.4-1.7.3-1.7.3s2.71-1.72 3.39-3.09c-.8-.16-1.79-.1-1.79-.1l.04-.04.01-.01c.03-.03.07-.07.12-.13l.01-.01c.05-.05.11-.12.18-.19.02-.02.03-.04.05-.05.06-.07.13-.14.2-.22.01-.01.02-.03.04-.04.08-.09.18-.19.27-.3.02-.02.04-.05.07-.08l.26-.29a10.347 10.347 0 01.38-.43c.02-.03.05-.06.07-.09.09-.11.18-.21.27-.32.02-.02.03-.04.05-.06.36-.42.71-.86 1-1.26-2.02.07-3.32.65-4.26 1.46.05-.36.2-.96.45-1.85-2.2 1.1-2.68 2.7-3.14 3.83-.08.16-.16.33-.26.56-.03-.09-.07-.17-.12-.26l-.03-.06c-.04-.09-.1-.18-.15-.27-.01-.01-.02-.03-.03-.04-.06-.08-.12-.17-.19-.26-.01-.02-.03-.04-.04-.06-.08-.1-.17-.2-.27-.31-.01-.01-.01-.02-.02-.03-.13-.13-.27-.27-.44-.42-1.6 1.9-1.12 4.61-1.12 4.61s-.36-.35-.81-.7c-.3-.25-.62-.51-.84-.65-1.1 2.59.07 5.01.07 5.01s-.7-.4-1.44-.5c-.1-.01-.19-.02-.29-.02-.1.63-.14 1.17-.13 1.64v-.02c-.28-.64-.78-1.32-1.41-2.1-.53-.75-1.11-1.48-1.88-2.09-3.16-2.49-7.23-1.7-9.67 2.04 1.91-1.32 3.61-1.59 4.86-1.09.17.07 3.33 1.73 4.62 4.7-.51-.23-1.87-.92-2.81-1.06.8.61 1.37 1.93 1.48 2.77-2.43-1.76-4.26-2.47-7.07-2.54.74.21 1.07.56 1.2.92-2.12-.35-4.69-.2-6.73.6.3.11 1.01.61 1.12.99-2.32.3-4.24 1.74-5.01 2.56.62-.02 1.22.08 1.45.3-1.45.56-2.2 1.11-3.05 2.07-.15.27-.42.59-.7.91-.33.37-.55.4-1.1.89-.37.33-.99.78-1.59 1.22-5.61 5.22-2.81 12.97-3.13 17.15.02-.01-.1 1.02-.11 1.34-.53.59-.92.22-1.37.22-3.25 0-9.2-.33-10.32-.31-.7-.18-2.03-.2-2.75-.34-2.93-1.64-8.46-1.26-10.46-.15-2.02 1.12-.75 1.23-2.1 2.58-1.38 1.38-1.82 3.31-1.07 3.98-.11.85.19 1.2.71 1.3.34 1.76.29 5.32.35 7.01-3.62-1.55-6.78.45-10.6 4.51-1.3.04-3.24.91-6.01 1.53-5.6.85-7.63 2.08-8.83 3.43-1.2 1.35-.7 1.92-.85 3.42-.15 1.5-1.68 4.13-.65 6.21 1.47 2.97.92 6.47.97 6.86-.01-.01-.77-.52-.77-.52s-1.69-.93-3.29-1.1c-1.2-.13-2.56-.49-2.42-.3-.02.51.46 1.43.69 2.27.23.84.39 2.42.38 2.41.17 10.38-5.39 16.87-8.55 27.15.31-.53.63-1.06.95-1.6-.89 1.81-1.71 3.53-2.47 5.11.17-.47.3-.86.38-1.13-2.44 6.12-8.71 14.78-9.76 22.86-.6 4.66-.61 11.46-.5 15.36.09 3.1.34 7.53 1.4 10.38 3.62 9.78 20.18 7.63 22.3 6.83 4.06-.78 7.87-4.26 10.62-6.43 3.67-2.89 15.31 3.23 15.71 6.43l1.35 7.78 124.2-.45c-.01.05-.41-5.1-1.06-9.23M250.89 5.64c-.05-.01-.09-.01-.14-.02-.07-.03-.14-.06-.21-.08.11.03.22.06.35.1m-77.07 96.79c-.2.6.35 1.25-.65 2.39-1 1.15-3.98 4.23-5.59 5.09-.9.49-1.79.42-2.24.5.82-4.45-2.49-8.13-2.49-8.13s3.91-4.92 4.24-5.54c1.93 2.26 5.04 4.34 5.56 4.58.72.32 1.37.51 1.17 1.11m-4.19-9.18s1.45-1.5 1.6-3.19c1.85-.55 1.12-3.85 1.02-4.55-.1-.7-.8-2-.8-2s.3-.65.5-1.35c.2-.7.92-2.87-.55-4.69 1.05-.77.85-2.79.85-2.79s-.2-1.65-.4-2.14c-.2-.5-1.02-2.88-1.02-2.88s.25-2.17-.35-3.89c-.6-1.72-1.5-2.79-1.5-2.79l-1.45-1.15s-.15-.52.23-1.12c.37-.6.71-1.05 1.85-1 1.25.05 2.29.87 2.49 1.77.2.9.81 3.09 2.25 4.33.52 6.1.66 20.07.4 26.44-.89 4.35-5.12 1-5.12 1m39.13-12.83c-1.35 1.5-2.4 4.04-2.25 5.99.15 1.95.6 5.24.6 5.24l-3.74.45s-.07-9.88-.07-14.59c0-4.71.52-13.24.52-13.24l1.35-1.94s.67-2.25 1.57 1.27c.18.71.32 1.39.49 2.13.65 2.9 1.28 5.81 2.36 6.7 1.35 1.12 1.87 2.17 1.87 2.17l.75 3.89c-.01-.02-2.1.43-3.45 1.93" clip-path="url(#SVGID_4_)" fill="#fff"/><path class="st2" d="M144.78 100.52c.53-2.35.63-4.3.15-5.71-3.15 13.66-18.66 36.69-19.13 49.91.53-1.68 1.22-3.53 2.04-5.49.43.53 1.08.85 1.81.81 1.2-.07 2.12-1.1 2.06-2.3a2.166 2.166 0 00-2.1-2.05c.44.09.78.46.81.93a1.007 1.007 0 11-1.06-.95h.02c.52-1.17 1.08-2.36 1.65-3.57a2.192 2.192 0 003.99-1.37 2.195 2.195 0 00-2.03-2.06c.43.1.76.47.79.93a1.017 1.017 0 01-2.03.11c-.03-.55.39-1.02.93-1.06.6-1.25 1.22-2.5 1.83-3.77.44.4 1.04.62 1.68.59a2.325 2.325 0 002.19-2.45c-.06-1.04-.8-1.88-1.76-2.12.37.15.64.5.67.93.03.59-.42 1.1-1.01 1.13-.59.03-1.1-.42-1.13-1.01-.03-.59.42-1.1 1.01-1.13.11-.01.21.01.31.03.51-1.04 1.01-2.09 1.5-3.12.43.63 1.17 1.03 1.99.99 1.25-.07 2.2-1.13 2.13-2.38-.06-1.1-.9-1.97-1.96-2.11.35.15.61.49.63.9.03.57-.41 1.07-.99 1.1a1.047 1.047 0 01-.12-2.09c.42-.93.83-1.84 1.23-2.74.45.61 1.19.99 2.01.95 1.29-.07 2.28-1.18 2.21-2.47s-1.18-2.28-2.47-2.21h-.01c.58-.01 1.07.43 1.1 1.02.03.6-.42 1.1-1.02 1.14a1.077 1.077 0 01-.28-2.13c.44-1.1.84-2.17 1.19-3.19.49.61 1.25.98 2.08.93a2.488 2.488 0 002.35-2.63 2.488 2.488 0 00-2.63-2.35h-.02a1.145 1.145 0 01-.16 2.27c-.63.04-1.18-.45-1.21-1.09 0-.5.31-.95.76-1.12M199.02 172.58c-1.2 3.29.3 8.98 3.29-3.29s6.58-32.02 10.48-45.49c-6.28 10.77-8.98 32.92-13.77 48.78M211.16 147.53c-1.12-.4-2.38.25-2.8 1.44-.42 1.19.15 2.49 1.27 2.88 1.12.4 2.38-.25 2.8-1.44.43-1.19-.14-2.49-1.27-2.88M209.37 155.01c-1.12-.4-2.38.25-2.8 1.44-.42 1.2.15 2.49 1.27 2.89 1.12.4 2.38-.25 2.8-1.44.42-1.2-.15-2.49-1.27-2.89M207.87 163.09c-1.12-.4-2.38.25-2.8 1.44-.42 1.19.15 2.49 1.27 2.88 1.12.4 2.38-.25 2.8-1.44.42-1.19-.14-2.48-1.27-2.88M216.25 124.93c-.45-.16-.92-.15-1.36 0 .47.03.85.45.85.97 0 .54-.4.97-.9.97s-.9-.43-.9-.97c0-.16.04-.32.11-.45-.26.25-.47.56-.6.92-.42 1.2.15 2.49 1.27 2.89s2.38-.25 2.8-1.44c.42-1.2-.15-2.49-1.27-2.89M214.45 132.56c-.38-.13-.77-.14-1.14-.06.42.08.74.48.74.96 0 .54-.4.97-.9.97s-.9-.44-.9-.97c0-.19.05-.37.14-.52-.33.27-.6.62-.75 1.06-.42 1.19.15 2.49 1.27 2.88 1.12.4 2.38-.25 2.8-1.44.44-1.19-.13-2.48-1.26-2.88M212.96 139.89c-.45-.16-.92-.15-1.34 0 .46.05.81.46.81.96 0 .54-.4.97-.9.97s-.9-.44-.9-.97c0-.14.03-.28.08-.4-.24.24-.44.54-.56.88-.42 1.2.15 2.49 1.27 2.89s2.38-.25 2.8-1.44c.43-1.2-.14-2.49-1.26-2.89M212.8 117.53c.6-6.43-1.27-12.63-3.9-15.43.45 2.92 2.85 10.49 1.81 20.07-.12 1.04 1.7-.46 2.09-4.64M133.02 111.79c5.07-8.67 12.05-17.9 8.53-27.44.17 10.38-5.36 17.17-8.53 27.44M230.79 64.36c-.05-.64.35-1.64.53-2.32-.21.14-.49.5-.73.91-.06-.64.07-.84.03-1.15-.32.46-.56 1.18-.66 1.84-.1.79.89 1.53.83.72M229.63 76.07c-.26.41-.37.5-.66.56.42.06.89.06 1.15.07-.25-.19-.29-.32-.49-.63M227.37 76.07c-.23.26-.56.24-.56.24s.92.21 1.37.21c-.23-.15-.54-.3-.81-.45M222.49 68.33c1.76-1.31 2.92-1.52 3.14-2.34-.82.75-2.17.06-3.14 2.34M231.31 49.88c-.3 1.12-.97 2.25-.97 2.25s1.8-.98.97-2.25M234.53 51.53s-.79-.85-1.17-1.6c-.41 1.69 1.17 1.6 1.17 1.6M205.15 37.36s1.1-6.18 5.29-9.13c-6.34 1.7-5.29 9.13-5.29 9.13"/><path class="st2" d="M200.07 40.3c.95-.7 2.08-3.25 1.99-5.98-.08-2.73.82-5.57 2.96-6.57-1.42 2.92-.57 6.17-.57 6.17 1.12-4.39 2.52-7.28 7.23-9.68-2.62.47-3.74.75-5.24 2.1.82-1.32 1.79-3.19 4.34-4.24-2.93.19-4.95 2.08-5.92 3.06.47-1.3 2.09-3.02 4.34-4.21-2.62.45-4.39 1.52-5.5 3.11.37-1.12.75-1.64 1.27-2.27-7.93 5.11-4.55 13.95-4.9 18.51M149.34 69.02c.7.2 1.89-.05 2.94-.7-.65-.25-1.85-1.4-2.44-1.7-.6-.29-1.2 2.2-.5 2.4M152.73 74.16c-.93-.22.3-1.35.3-1.35s-1.95-.25-3.62.5c-.95.43-1.37 2.24-.03 2.54 1.35.3 1.9.22 3.32-.22 1.42-.45 1.87-.92 3.07-1.35-.74-.37-1.76.18-3.04-.12M151.64 82.54c1.4.54 4.09-.6 4.24-1.2.15-.6-1.52-.65-3.02-.95-1.5-.3-2.24-.75-2.24-.75-.46.83-.53 2.3 1.02 2.9M182.49 43.06c-1.87 1.35-7.96.18-7.51 3.77 1.27-1.94 3.02-1 5.34-1.67 2.32-.68 2.47-1.65 2.17-2.1M168.6 57.65c0 1.8 2.79-.5 4.79 2.1-.41-3.2-4.79-4.59-4.79-2.1M201.12 56.3l.36-7.41s-7.49-2.12-17.02-1.32c9.88.35 14.04 1.62 14.04 1.62s.38 2.32.22 4.34c-.15 2.02 2.4 2.77 2.4 2.77"/><path class="st2" d="M171.86 48.07c.14-3.07 1.65-3.35 2.99-5.39 1.43-2.17 8.6-1.79 10.91-1.42-2.89-1.7-8.9-1.87-10.92-.75-2.02 1.12-1.25 1.75-2.59 3.09-1.38 1.38-1.81 4.32-.39 4.47M173.68 48.77c-.7 1.2 8.58-1.2 8.58-1.2s-7.88 0-8.58 1.2M174.15 57.84s-.22-4.94-1.27-8.83c-.1-.37-1.11-.18-.77 1.61.34 1.77.54 3.07.6 4.76-1.66-.95-4.96-.74-5.92 1.21 4.61-2.66 7.36 1.25 7.36 1.25M199.77 104.11c-3.56-.39-12.94-.52-17 .55 7.33-.2 13.21-.01 16.62.42 1.98.25 2.1-.78.38-.97M220.52 59.21c1.1.3 2.64.4 4.74-.35-.45.52-.85.7-1.35.9 1.03.28 1.94-.56 3.07-.75.49-.08.52-.57.37-.65-1.87-1.04-4.42.42-6.83.85M216.97 57.01c.02-.05.03-.1.04-.16.01-.06.01-.13.01-.2-.64.19-1.7.08-2.82-.77.23.36.56.7.92.97.01.01.02.01.03.02.02.02.04.03.07.05.09.06.18.12.27.17.02.01.03.02.05.03-.18.36-.72.16-1.31.01-.19-.06-.4-.1-.64-.11h-.01c.75.3 1.05.73 1.49.96.74.41 1.48.2 1.9-.97M225.97 56.9c-.64-.13-1.3-.14-1.85-.18.2-.3.15-.75.15-1.14 0-.08-.15-.85-.3-1.07 1.27.11 2.02-.12 3.66 1.11h.01c.23.09.46.15.62.19.64.19 1.25-.51.64-2.44.59-.16.9-1 .7-1.5v-.01c-.06.09-.13.16-.22.23l-.01.01c-.25.2-.57.31-.86.32-2.84-1.11-3.66-1.01-4.05-.82.52.22.88.5.96.56l.01.01c1.09.75 1.01 1.27.24 1.33-.31-.14-5.52 1.14-4.68 1.11-.55.72-.32 1.8-.04 2.16-.8.05-1.46.07-2.02-.1-.19-.06-.72-.1-1.4.3 2.71 1.1 5.22-.46 8.44-.07m-4.05-2.15c.23 0 .46.25.46.48s-.24.46-.47.46c-.23 0-.43-.26-.43-.49s.21-.45.44-.45"/><path class="st2" d="M297.19 168.69s1.91-25.28-9.28-42.5c-2.34-4.32-8.28-10.77-15.86-16.76-8.8-6.95-11.37-11.77-16.16-16.96-1.29-1.39 2.26-10.25-2-13.92.3-1.5.41-2.64.55-3.59 1.46-.38 2.75-1.99 2.94-4.49.23-2.9.8-3.59 1-4.89 2.4-1.6 4.74-3.56 6.14-7.43.42-1.16.84-3.44 1.74-6.93.14-.6.48-6.52.48-6.36.08-.87-.49-3.27-.48-4.86.05-7.48-.43-9.88-2.2-12.48-.15-.23-1.11-2.93-2.76-4.28.5 0 1.65.85 2.54 1.2-.4-.74-.92-1.46-2.54-3.37-2.53-2.98-6.43-5.46-10.55-5.69.27-.34.72-.91 1.27-1.12-2.39-.82-5.24-.37-6.81.22.26-.75.38-1.27 1.12-1.5-2.42-.32-4.84.27-6.88 1.05 3.13-3.11 6.27-4.42 9.85-3.96-2.19-1.08-4.14-1.4-5.86-1.22 1.42-1.1 2.65-2 4.79-2.3.45-.15 2.43-.26 4.39 1.14 1.47 1.05 2.82 3.26 4.09 5.15.24-2.26-1.11-5.38-4.04-6.99-4.94-2.72-9.03-1.63-12.39 1.05-.71.57-1.55 1.87-2.03 2.27-.47.4-.51-.17-.32-.45s1.38-1.4 1.45-1.67c-1.1.4-1.7.1-1.7.1s2.61-1.65 3.29-3.02c-.8-.16-1.85-.15-1.85-.15s1.01-.72 1.73-1.54c.57-.64 1.21-1.4 1.69-2.05-2.02.08-3.06.59-3.69 1.02 1.05-.3 2.18-.19 1.95.09-.83 1.05-2.42 2.7-3.18 1.76-.41-.5.11-1.07.66-1.41.05-.36.2-.96.45-1.85-2.59 1.3-2.79 3.29-3.39 4.39-.2-.5-.5-1-1.3-1.7-1.6 1.89-1.12 4.61-1.12 4.61s-1.12-1-1.65-1.35c-1.1 2.59.07 5.01.07 5.01s-.97-.52-1.72-.52c-.1.63-.14 1.18-.13 1.65-.98-1.4-1.8-3.04-3.29-4.22-3.16-2.49-7.23-1.7-9.67 2.04 4.25-2.93 6.6-.31 9.49 3.51-.51-.22-1.88-.82-2.82-.96.8.61 1.37 1.93 1.48 2.77-2.43-1.76-4.26-2.47-7.07-2.54.74.21 1.07.56 1.2.92-2.12-.35-4.69-.2-6.73.6.3.11 1.01.61 1.12.99-2.32.3-4.24 1.74-5.01 2.56.62-.02 1.22.08 1.45.3-1.95.75-2.63 1.49-3.97 3.21 2.17-1.65 3.99-2.79 7.73-3.09 0 0-.9-.67-2.32-.67 1-1.05 3.19-1.27 5.99-1.12-.4-.55-1.54-1.06-2.34-1.26 3.24-.4 5.74.07 7.33 1.1-.35.03 3.23-.34 4.76 2.36-.6 3.89.78 7.94.85 11.12.15.65-.27 2.02-1.55 2.69-2.49-.22-3.5.17-4.49.52.48.17 1.12.22 1.31.45-4.71.67-8.27 1.65-9.69 2.69.49 0 .86-.11 1.5.37-1.01.61-3.35 1.35-5.01 3.14-.88.95-2.81 2.94-3.24 5.63-.04-.2-.08-.37-.14-.49-1.09-2.38-5.04-3.32-7.73-3.32-3.59 0-10.67.1-10.67.1s3.88.99 7.48 1.1c6.98.2 9.73 3.35 7.68 4.3.64.62 1.01.69.71 1.33-.18 1.45-.49 5.26-.78 10.1-2.24-.87-3.77-.47-4.38-.91-.66-.47-5.44-.38-5.78-.61-.15-.1-2.17-.34-2.77-.18s-3.4.03-3.97.17c-1.05.26-5.67.38-6.88.64 1.13 16.88 2.21 35.19.69 44.39 4.91-.5 16.19-1 19.9.82-15.56-.97-23.29.94-24.76 1.2 2.56-6.04 1.23-8.66 1.33-12.97.3-12.72-.45-25.74-.45-25.74.11-1.1.2-2.42-.31-4.76-.15 1.5-.95 3.12-1.62 2.22-.67-.9-1.21-3.52-4.35-3.52-1.93 0-2.74 1.34-3.02 1.98-.45-.32-1.1-.62-2.29-.72.03-.38.21-1.38 1.27-2.97-1.42.75-2.92 2.52-2.92 2.52l-.39.54.71.04c1.88.26 2.77 1.52 2.83 1.99.12.98.18 2.09-.21 3.13-.07.18-.18.6-.69.68-.7.1-2.11.32-3.59.6-2.33.44-4.93 1.05-6.81.97 1.95 1.95 9.73.37 9.73.37s4.86-.52 5.19 1.12c.15.78.9 3.19-.1 3.89-1 .7-3.59.67-5.29 1.1-1.7.42-3.62 1.52-6.98 1 1.94 1.95 4.74.75 6.04.5 1.3-.25 1.99-.35 3.99-.4 2.1-.05 3.79.6 3.67 2.22-.1 1.3.38 2.51-1.37 3.47-1.1.6-2.99.23-4.76.42-1.77.2-4.19 1.5-6.58 1.27 1.57 1.55 3.27.95 6.01.5 2.74-.45 5.49-.15 5.49-.15s1.86.27 1.6 3.17c-.15 1.67-1.52 2.52-2.67 2.94-.24.04-.51.1-.82.18-2.93.79-5.89-.65-9.23-1.4-.63-.14-.47-.8-1.2-.82-.35-.01-1.73.57-2.1.6-1.8.15-2.94-1.97-3.54-3.77-.16 3.26 1.75 5.78 2.89 7.43.44.64.32 1.96 2.28 3.86-2.3-.75-3.52-2.8-4.58-3.92.43 2.64 2.88 5.68 4.16 6.46-1.17-.58-2.55-1.04-3.96-2.49 1.25 3.12 4.44 4.69 6.09 6.14-2.14-.35-3.99-1.7-5.79-3.95 1.16 2.65 3.05 4.45 4.94 5.8-2.24-.3-4.45-2.24-5.54-3.85.95 2.98 2.79 4.45 3.8 5.4-.09.17-.27.34-.46.5-3.73-3.1-6.34-8.77-6.82-13.77.43-3.55.44-2.19.26-4.78.81 1.43 2.06 2.83 2.06 2.83-.88-1.35-1.83-3.66-2.36-5.88-.57-2.39-.6-4.68-.3-6.25.3-1.57-1.27-2.14-1.5-4.09-.22-1.95.97-3.07 1.05-3.89.07-.82-.69-3.65 1.51-4.81 2.51-1.32 4.34-2 7.54-2.99-5.6.85-8.61 2.1-9.8 3.44-1.2 1.35-.55 2.06-.7 3.55-.15 1.5-1.35 2.47-1.2 4.79.15 2.32 1.65 2.24 1.27 6.96-.01.12.02.4.07.79-2.41-1.6-5.36-1.37-6.05-1.68-.37 1.17 2.82 3.36 3.61 4.37 2.56 3.28 2.75 7.87 3.76 11.74.82 3.13 2.03 8.07 4.28 11.37.16.23.19.71.03 1.44-1.23-.68-2.45-1.58-3.19-2.69.75 1.77 1.73 3.16 2.7 4.24-.19.49-.44 1.05-.75 1.67-1.26-.98-2.58-2.03-3.35-2.71.49 1.63 1.48 3.13 2.48 4.33-1.99 3.5-5.54 8.53-11.53 15.38 2.03-.98 5.29-3.04 10.41-7.97-1.42 3.5-10.77 9.97-13.96 17.26 6.28-6.48 11.55-9.87 13.47-11.37-6.14 10.13-16.77 14.4-18.7 30.29 4.51-6.56 6.07-9.13 10.83-12.73 4.3-3.25 1.92 3.26-3.12 8.71-4.49 4.87-5.96 4.37-6.57 11.5 2.37-6.78 9.85-9.28 14.52-14.2-.36 1.7-2.84 5.75-8.71 11.57 1.68-.39 4.28-2.03 5.9-3.52-.49 1.93-2.25 6.36-3.92 7.69 2.97-.56 7.27-5.8 9.99-6.84-1.69 1.49-2.87 2.81-4.18 4.28-2.93 3.26-5.86 6.7-10.58 5.57-4.18-1-6.7-2.22-8.33-5.98-1.83-4.24-2.68-8.55-2.52-13.25.17-4.83-.69-10.19.82-14.84 1.4-4.29 7.16-17.99 7.97-20.75-2.44 6.12-10.21 15.33-11.26 23.41-.6 4.66-.38 11.35-.27 15.25.09 3.1.56 7.08 1.44 9.98.54 1.79 2.51 4.04 3.74 5.39.76.83 1.55 1.8 2.39 2.55.6.54 1.64.87 2.29 1.04 2.71.73 7.4.37 9.32.48.88.05 2.71.51 4.83-.29 4.06-.78 8.68-4.11 11.44-6.28 3.69-2.91 14.39 2.58 14.68 5.79.11 2.61.41 4.55.26 6.5 2.87.75 9.13-.3 11.82-.3-.45-6.28 1.56-16.35 1.68-17.1 1.29-7.88 4.09-15.67 6.1-18.76-1.2 3.39-2.76 14.2-1.86 19.49.29-2.76 2.26-15.9 6.05-21.09-.5 4.19-4.49 18.61-1.05 37.16.89-.2 2.69-.15 3.74-.15 1.5-10.18 5.33-22.05 5.69-24.99.75-6.13 1-8.13 3.59-18.4-1.65 2.77-2.95 4.93-4.19 8.68 1.05-11.26 5.67-15.29 3.32-30.29-.6 5.99-1.95 9.88-4.79 14.51.7-2.29 2.1-10.77.6-14.37-1.2 8.38-3.59 7.83-6.09 18.11-.12-1.15-.28-6.87.77-11.81-2.84 5.39-4.51 9.5-5.19 12.57.45-7.73-.15-12.67-1.65-15.21-.6 3.89-.75 6.43-3.14 10.22.62-2.84.77-11.54-.95-15.82.46-.98 3.32-.93 4.39-.93 6.7-.04 10.21-.15 13.32-.75.76-.15 2.68-1.93 2.49-3.24-.17-1.18-.01-3.11-.37-5.02-.4-2.14-.69-4.58-.88-7.21 1.98.38 3.43.75 3.43.75s-.49-1.76-.64-3.85c-.96.2-1.78.55-2.92.96-.43-8.47.02-18.56.71-27.06.83.77 1.78 1.38 2.5 1.66-.19-.8-.46-2.04-.64-3.48-.05-.44-.29-1.86.95-2.18.06.94.27 2.17.44 4.12.02.22.31.17.36-.08.26-1.61.5-3.08 1.45-3.08.24 1.06.39 1.92.75 2.9.02.72.03 1.46 0 2.62-.05 2.15.5 4.91.45 6.13-.9.22.34 2.04.41 2.51.24 1.6.36 2.77.6 3.54-3.84 2.26-4.69 8.13-1.52 18.91.87 2.96 5.66 9.97 5.64 17.62.39-1.23.96-2.08 2.04-3.88.39-.71 1.31-1.9 1.55-2.24 1.74-2.42 2.71-5.46 2.19-5.61-.92-.39-2.09-1.03-3.43-2.02-1.89-1.69-3.43-3.75-4.09-5.54-.28-4.57-1.49-8.41-1.43-14.79.91 1.26 1.67 2.62 3.17 4.12.71.71 1.42 1.99 3.66 3.27.9 1.35 2.49 2.04 3.59 2.17-.75-2.17-.23-3.82.07-4.56-.64.26-1.05 1.42-1.2 2.24-1.2-.67-.88-4.3 1.57-4.71-1.21-1.35-1.66-3.21-1.76-3.51-2.21-3.41.38-5.7 4.32-5.48 2.16-.01 3.86.76 5.89.85.4.02 1.42.04 1.82-.02 1.06-.16 1.19.6.5 1.05-.42.1-.87.28-1.2.3.05.15-.11.16-.17.3-.25.6-1.54 1-4.45.65-.55-.15-1.03.79-1.8.7.31.17.66.29 1.02.39h-.02c.36.4 1.16.55 1.76.69-.67.68-.37 4.08-1.92 4.83-1.03.5-2.62.6-3.57-.57.64 1.12-1.69 5.54.25 7.64.55 1.2 1.48 1.41 1.96 2.01 1.36 1.42 5.68 1.25 7.12 1.27-6.98 1.2-8.07.22-9.94-2.24-1.6-.6-3.32-1.53-4.67-3.13-.72-.54-1.55-1.12-2.16-2.01 1.4 7.26 5.39 10.23 9.48 11.42-2.25.3-4.84-.9-7.38-2.54 1.2 2.39 5.29 4.19 6.68 4.49-1.1.5-3.99-.8-6.09-2.2 1.1 3.19 5.08 3.47 5.34 3.84.7-.1 1.5-.35 1.99-.66.85-.75 1.67-1.43 2.46-2.05 8.26-7.6 13.74-7.77 18.28-11.11-1.87 4.11-5.49 5.26-7.93 6.51-2.91 1.49-12.26 7.36-18.98 15.57-2.47 3.01-4.86 7.99-5.36 9.35-.25 1.11.3 2.24 1.34 2.61 1.12.4 2.38-.25 2.8-1.44.42-1.19-.15-2.49-1.27-2.88-.29-.1-.87-.16-1.49.04 3.38-6.25 8.42-8.85 7.52-7.84-1.76 1.99-2.83 5.08-2.61 4.93 7.85-4.73 14.61-6.43 18.62-5.12-7.09 5.2-16.16 11.17-20.15 20.35 4.59-5.39 9.58-10.08 12.77-9.38-2.79 2.22-3.62 3.43-5.99 6.73 3.49-2.59 10.23-10.77 13.77-8.98-8.16 6.3-13.77 10.62-18.36 22.79 9.28-15.96 29.48-25.39 33.47-29.23 2.34.4 6.23 2.99 7.96 6.02-8.71 15.68-24.94 18.01-28.91 25.25 2.94-7.09 4.55-11.06 9.43-15.26-5.09 2.69-8.99 6.71-10.92 9.28.3-2.39 1.57-4.34 2.84-6.28-15.58 12.26-15.81 29.95-15.54 34.88.42 7.62.87 11.06.87 11.06s15.56-.6 22.15-.45c.15-1.05.2-10.13 6.28-23.49 6.58-12.97 12.89-22.22 21.05-26.93-10.73 11.07-24.79 37.11-21.2 50.43 5.99 0 33.82.15 47.58-.3.51-3.1-.1-8.2-.1-8.2M241.48 6.86c1.96-1.21 4.66-2.82 9.4-1.22-3.84-.82-6.54 1.75-8.33 3.09-.6 0-1.18.06-1.79.15.65-.82.62-1.6.72-2.02m-57.78 91c-.26 3.2-1.28 1.97-1.35.9-.3-4.94.15-18.95-.85-37.91 2.3 10.48 2.42 34.38 2.2 37.01m1.98 1.85c-.69.15-.62-10.75-.51-18.04 1.2 8.2 2.29 17.65.51 18.04m-14.19-9.54c1.7-.7 1.77-1.37 2.09-3.64.4-2.79-1.05-3.34-1.05-3.34s.8-.45.95-2.69c.13-2-.57-2.79-.57-2.79s.52-.1.72-1.05c.2-.95.25-2.64-.35-3.44-.6-.8-1.1-2.1-1.99-2.99.34-.49.4-1.5.4-2.59 0-1.68-1.12-4.15-2.1-4.75-.95-.59-1.61-.92-1.95-1.08.21-.87 1.02-1.52 2.2-1.52 2.39 0 2.24 2.55 2.69 3.81.36 1 .69 1.57 1.25 1.75.8 10.97.76 24.42.6 26.49-.95.4-.62 1.12-1.6 1.35-.97.22-2.1-1-2.1-1s.71-1.72.81-2.52m-3.75 1.76c1.43 1.61 3.52 3 4.39 3.44 1.75.9 2.54-.85 2.65-1.21.65 0 1.79 3.35.52 5.24-.24.44-6.12-2.58-8.88-6.7.33-.31.79-.59 1.32-.77m-6.25 1.94c-.62-.03-2.27-.14-3.81-1.78 1.46.56 2.39.45 2.96.34-.99-.25-2.54-1.01-3.4-2.28 1.31.75 4.14 1.46 3.96 1.41 1.05 1.15 1.81.9 2.13 1.24.16.17.35.52.43.97-.64.07-1.45.14-2.27.1m1.96 8.3c1.25-1.27 1-1.38 2.43-2.55.55-.36 1.01-.71 1.27-1.04.07-.09.13-.17.18-.25.13-.13.27-.26.4-.4.9.93 1.82 1.77 2.51 2.19.62.37 1.13.64 1.54.84 1.22.61 1.82.26 1.71.81-.17.88-.58 2.14-.68 2.93-1.65.75-4.63 4.25-7.07 4.93.33-2.71.1-4.54-2.22-7.53l-.07.07m.22 12.32c.3-1.95 1.46-3.75 4.19-2.84 5.39 1.79 6.43 7.63 6.43 7.63-2.69-1.8-3.74-3.6-10.62-4.79m25.64-5.23c-7.17 0-13.17-.43-13.17-1.01 0-.03-.75-.41.2-.57 1.36.32 5.69.55 10.82.55 6.23 0 11.27-.34 11.27-.77 0-.35-3.49-.65-8.24-.74-.7-.43-.35-.56 1.06-.5 4.39.17 11.18.82 11.19 1.23.04 1.7-5.96 1.81-13.13 1.81m15.45-3.96c-.05.3-.22 1.28-1.79 1.16-11.93-.95-19.25-.97-28.28.07-1.64.19-1.55-1.87.49-2.43 2.14-.6 4.63-1.05 11.67-1.23 7.03-.19 14.07.64 16.46.94.97.11 1.52 1.04 1.45 1.49M225 91.49c-1.52-2.17-.23-3.44.42-4.79.03 1.63-.72 2.64-.42 4.79m-7.87 27.15c.5 0 .9.44.9.97 0 .54-.4.97-.9.97s-.9-.44-.9-.97c0-.54.4-.97.9-.97m22.09-96.44c3.36-2.08 7.57-1.68 10.05 1.26-1.3-.25-2.69-.2-3.29.2 1.35.35 3.89 1.7 4.54 3.34-2.1-.45-3.91-1.15-5.34-.55 2.04 1.1 3.24 2 3.64 3.34-1.12-.48-2.54-1.14-3.99-.97 2.33 1.17 3.08 2.59 4.2 4.54-1.8-1.67-3.84-2.72-5.22-3.19 1.7 1.4 2.3 2.89 2.82 4.24-1.72-1.65-3.67-2.51-5.31-3.07 1.33 1.32 2.69 2.47 3.59 3.96-2.47-1.5-4.76-2.23-6.73-2.77.05.1.23.69.53 1.45-.75-.26-2.03-.71-2.57-1.47-1.82-3-.37-4.83 1.12-6.87.84-1.16 1.73-3.38 1.96-3.44m.67-17.8s-3.33 3.79-3.82 1.93c-.48-1.85 3.82-1.93 3.82-1.93m-2.22 3.13s-2.73 3.52-3.34 2.32c-.87-1.71 3.34-2.32 3.34-2.32m-1.55 2.69s-1.75 3.8-2.95 2.85c-1.5-1.19 2.95-2.85 2.95-2.85m-3.71 9.61c.91 0 1.65.71 1.65 1.6 0 .88-.74 1.6-1.65 1.6-.91 0-1.64-.71-1.64-1.6-.01-.89.73-1.6 1.64-1.6M218.97 7.88c5.63-2.54 9.24 1.57 9.99 6.65-2.5-3.29-5.6-7.45-9.99-6.65m-1.05 76.52s-1.68-2.18.17-3.63c-.55 1.1-.17 3.63-.17 3.63m-.15-4.59c-2.4-1.75-3.91-4.17-4.44-8.68-.3-2.58-.87-3.95-1.28-5.87.32.31.74.58 1.28.78-1.79-2.43-1.61-5.64-1.52-6.54.27-1.47.76-2.8.91-5.69.22-4.42 1.7-8.18 1.78-8.31.67-1.09 1.73-2.24 2.54-2.74-.07.27 7.15-5.92 14.31-5.79 3.04.4 11.47 2.33 11.97 2.89 1.03.85 2.69 3.19 3.11 4.19 4.23 2.43 3 5.79 2.02 5.69-1.55-.74-3.79-1.02-8.08.07.17-.17-2.59.49-3.14 1.12-.61.21-2 2.23-2.06 2.58-.13.77-.09 3.19.04 4.04.3 2 .37 3.05.41 3.67.04.61-.15 2.18-.09 3.07.03.41-.21 1.19-.47 1.64-1.04 1.47-2.72 1.44-3.85 1.23.14.71 2.12 1.77 3.31.67.93-1.07 1.98-.8 2.49-.34-1.08-.07-1.57.44-2.02.71-.52.31-1.37.89-2.32.9-1.81.01-2.19-1.54-3.29-1.57-.86-.02-2.22.8-2.85-.55 0 1.57 1.71 1.58 2.09 1.83-.23 0-.9-.02-1.09-.01-1.56.15-4.24.46-6.19 1.37.59-.47.83-.81.9-1.3-1.27 1.08-2.8.73-4.72 2.89.39-.91 1.02-1.91 1.77-2.54-1.4.5-1.71 1.04-2.77 1.7.39-1.04 1.07-1.71 1.75-2.24-.8.35-2.79 1.54-2.44 2.69.53 1.35 1.01 1.93 1.5 2.34-.46-.06-1.06-.08-1.87-1.25.65 2.22 1.86 2.61 2.36 2.8-.46-2.11.78-3.64 2.61-4.59-.26.18-.51.37-.71.59-1.48 1.54-1.5 3.74-1.04 6.56.12.76-.5 2.29-.91 1.99m26.66-25.3c1.2.21 1.66.76 2.01 1.08.32.29.74.77 1.06 1.04-.23-.02-.66-.01-.88.04-.59.17-1.47.22-2.28.17.59-.66.2-2.06.09-2.33m3.01.88c-.63-.52-1.28-.85-1.72-.96-.6-.15-3.34-1.15-4.29-.75-.95.4-2.25.95-2.45.55-.2-.4-.36-1.07.3-1.65.66-.57 3.39-2.04 5.59-2.1 2.19-.05 3.29.56 3.84 1.83.34.79.45 2.01.4 2.26-.05.26-.58 1.72-1.67.82m-4.64-.19c0 .23-.26.5-.49.5-.23 0-.5-.32-.5-.55 0-.23.28-.39.51-.39s.48.21.48.44m-14.71 14c-1.35.4-1.97.72-3.17 1.32.9-1.02 1.52-1.42 3.17-1.32m-8.52 4.52c.65-3.49 3.24-3.25 3.24-3.25s-2.15 1.16-3.24 3.25m19.91.6c-1.37.05-3.09-.86-4.3-.34-.51.22-1.71.66-2.28.7-.7.06-1.19-.16-1.76-.42-1.19-.54-1.68-.5-2.92-.17-1.13.3-2.48.15-3.61.35-.89.11-1.96-1.01-1.85-1.1.52.1 1.73-.29 2.41-.56 1.16-.47 2.48-.72 3.69-.67-.15.28-.14.44-.38.6 1.11.03 3.93-.9 4.78-2.13.11.26.28.5.49.73.87.95 3.23.39 5.51 1.62.32.19.64 1.38.22 1.39m6.64-4.62c-1.57-1.35-4.63-3.02-5.31-3.19-.03-.46-.13-.95-.38-1.32-.15-.24.13-.74.38-.9.44-.29.95-1.6.39-2.64-.52-.98-2.03-2.01-2.26-2.36-.12-.18-.19-.39-.15-.43-.38-.22-.58-.6-.54-.94.04-.34.23-.78.82-1.01-.34-.18-.78-.77-.13-1.14.45-.26 1.21-1.15 2.62-1.4-.43.4-.77 1.5-.25 2.27-.31.02 1.43.14 3.26.41.8.12 1.77.43 2.34.51 7.35-.17 3.7 7.22 3.66 8.11.43 1.55.63 7.08-4.45 4.03"/><path class="st3" d="M224.76 103.6c-1.4.45-3.09-.15-3.09-.15s-1.9 2.59-3.59 8.08c1.69-2.49 4.69-6.28 6.68-7.93M202.32 169.29c2.99-12.27 6.58-32.02 10.47-45.49-6.29 10.77-8.98 32.92-13.77 48.78-1.19 3.29.3 8.98 3.3-3.29M218.07 80.4v.01-.01zM216.48 50.47c-.58.75-.64 2.01-.65 2.99 1.5-3.09 4.18-2.49 4.89-2.44 4.2.28 5.24 1.24 6.87 1.66.72.19 1.47-.56 1.31-1.37-.17-.83-1.26-1.72-1.45-1.9.04.14.24.63.21.74-.68-.26-1.26-1.08-2.06-1.09.1.15.38.44.05.35-2.2-.25-4.96-2.02-7.43-.82.4.07 1.03.02 1.27.22-.43-.02-1.01-.04-2.17.37.43-.04.84.27.97.3-.16.04-1.24.27-1.81.99M226.08 54.89c.16.04 1.55.74 1.92.87.32.11.08-.76-.65-1.25-1.39-.94-1.87-1.2-2.54-1.25-1.37-.1-4.43.39-5.14.8-.71.41-1.78 1.65-2.57 2.21.32.2 1.04.34 1.46-.07.73-.73 1.34-1.33 2.07-1.38h.1c-.19.4-.18.79-.18.85 0 .41.14.79.36 1.1.09 0 .16-.01.23-.01-.01-.01-.02-.02-.02-.03-.23-.36-.32-.99-.07-1.13.31-.17.43.27.49.43.08.2.32.63.98.67.56-.01.97-.02 1.63.04.24-.37.56-1.14.06-2.05 1.21.16 1.83 1.27 2.22 1.44.4.18.21.78-.12.78.23.04 1.13.21 1.32.17.31-.06.52-.75.05-.87-.64-.19-2.09-1.44-1.6-1.32m-4.16.73c-.23 0-.41-.18-.41-.41 0-.23.18-.41.41-.41.23 0 .41.18.41.41 0 .23-.18.41-.41.41M217.82 73.57c.32-1.27 1.42-2.35 3.28-3.25-4.26.63-3.76 3.12-3.28 3.25M249.23 6.77c1.78.65 5 2.77 7.47 6.07.12-1.6-1.72-6.25-5.68-6.67-.56-.06-3.51-.37-6.57 1.93 1.83-.95 4.34-1.49 4.78-1.33M209.95 97.76c.87 2.96 4.84 9.38 5.54 19.45 2.59-6.73.6-11.72-1.2-17.81 1.66.75 3.25 2.27 4.2 2.11-1.9-1.7-3.44-3.75-4.1-5.55-.28-4.57-1.49-8.41-1.43-14.79.23.31.44.63.67.96.67.98 1.38 2.03 2.51 3.16.71.71 1.42 1.99 3.66 3.27.9 1.35 2.49 2.04 3.59 2.17-.75-2.17-.22-3.82.07-4.56-.64.26-1.05 1.42-1.2 2.24-1.2-.67-1.35-2.62-1.35-2.62s-.67.52-.9 1.65c-3.52-1.98-4.45-5.71-3.47-7.99-1 .57-1.57 1.7-1.57 1.7s-.51-1.53.17-3.92c-1 1.05-1.32 2.07-1.32 2.07s-.38-1.27.32-3.12c-.47.18-.71.52-.93.91-1.76-2.84-1.01-6.81-2.66-10.29-.12 1.3.49 4.66.43 5.86-.16.03-.58.16-1.04-.07-.52-.25-1.05-.91-1.7-2.85-.77 3.68 2.62 5.09 2.68 5.56.06.48.22 1.45.32 1.99s.2.98.31 1.37c-3.84 2.27-4.77 8.33-1.6 19.1"/><path class="st3" d="M291.04 140.44c.4 6.72-1.05 9.25-1.43 6.38-.71-5.42-2.02-10.54-4.09-14.54-1.34-2.59-3.87-5.97-5.67-7.52-.36-.31.97-1.7 2.91-2.52-2.47-.15-4.61 1.12-8.4 3.62.8-1.1 2.22-2.84 3.59-3.39 1-.4-2.29-3.47-5.5-5.99-1.18-.92-.18-1.69 2.21-.59.82.38 1.62.8 2.4 1.27-.66-1.42-3.21-3.7-6.79-6.56-11.52-9.2-9.59-12.93-14.38-18.12-.51-.55-.09-2.4-.09-4.43 0-3.1-.99-6.39-3.57-8.6.3-1.5.91-5.48 1.05-6.43 3.19-1 4.23-3.84 4.32-4.34.27-1.48.62-2.11.77-3.08 4.61-2.88 5.7-9.26 5.68-12.63-.43 1.2-1.08 2.51-2.27 3.87.43-1.35.2-4.39.6-6.88.19-1.17.95-3.89.05-8.08.6.9 1.05 1.35 1.27 2.69.52-1.5.87-9.58-4.81-16.16 1.3.7 3.62 3.26 3.49 2.89-.56-1.63-1.85-3.04-2.56-4.13 1.74.68 2.96 2.18 3.64 3.95 0 0 .04-4.41-3.18-8.5.42.05 1.25.15 1.9.45-5.24-5.66-9.89-6.7-13.77-6.91.67-.52.9-.97 2.02-1.42-2.77-.3-5.31.67-6.88 1.27.26-.75-2.07-2.74-4.11-1.96-2.25 2.45-3.43 2.89-3.3 2.71 4.42-7.14 10.1-7.63 13.15-6.67-2.22-1.48-6.26-1.86-10.6-.81.37-.29.97-1.42 1.75-2.49-.44.33-.92.77-1.37 1.2.32-.53.42-.64.55-1.19-1.1.4-1.7.3-1.7.3s2.71-1.72 3.39-3.09c-.8-.16-1.79-.1-1.79-.1s1.03-1.08 2.02-2.25c-1.3 1.19-3.16 2.56-3.92 1.62-.21 1.23-2.18 2.24-1.9.19-.11.24-.24.6-.39.94-.16-.39-.38-.79-.85-1.28.43 3.09.13 3.89-.02 4.64-.09.46-.64.86-1 .65-.39-.23-.54-1.09-.54-1.09s-.39-.53-.95-.85c1.35 2.21 1.18 4.65.75 4.98-.2.15-.43.15-.64.07-.4-.14-.73-.54-.73-.54s-.7-.4-1.44-.5c2.34 1.62 2.79 4.35 1.61 4.78-1.03.37-1.98-1.64-2.02-3.18-.29-.67-.82-1.37-1.48-2.19 1.52 3.29 1.35 5.99 1.35 6.24-3.99-6.78-9.51-7.71-8.26-7.22 1.54.6 5.85 4.93 7.04 8.44-2.77-1.5-7.12-1.21-7.83-.95 2.88.6 5.06 1.78 5.93 2.86-.75-.45-2.49-1.25-4.54-.7 1.95.25 3.84 1.6 4.46 2.9-.68-.46-2.02-.69-3.61-.46 1.57.67 2.81 1.68 3.16 2.87-.92-.1-2.24-.01-3.56.88 1.59-.62 3.41.01 4.66.86 0 0-2.42-.07-3.72.73 1.2 0 3.69.4 3.69.4s-1.36 1.2-3.72 1.97c2.13.5 3.33.05 3.33.05s-.01.67-3.4 2.07c.88.35 3.33-.35 4.6-.87 1.12-.46 1.04 1.26.56 2.27-.91 1.75-2.36 1.7-4.01 3.04.23-.26.7-.8 1.05-1.3-1.45.3-2.24 1.5-3.09 2.44.05-.7.46-1.57.85-1.89-1.19.4-3.22 1.96-4.04 3.04.05-1 .54-1.49.8-1.89-1.63.34-3.94 2.29-5.46 4.49.04-.79.65-2.17 1.12-2.77-2.01 1.29-3.79 3.12-5.14 7.01-.22-.08-.52-1.12-.53-1.54-.65 1.26-2.3 4-2.6 9.38-.15.58-.92.66-1.4.7-.4 3.71-.71 6.75-.86 8.73.24.9.69 1.13 1.96 2.09-.16-1.15-.41-2.4-.35-3.51.06-1.19.49-2.23 1.68-2.81-.03-1.6.45-4.21 1.17-5.18-.25 3.55.58 9.13 2.22 11.03-.75-3.67.94-4.55 1.19-9.47.23-4.41 1.94-7.47 2.02-7.6.67-1.09 1.42-2.26 2.24-2.77-.07.27-.01.45-.05.75 1.64-2.19 3.99-1.95 5.23-3.36-.04.46-.84 1.31-1.04 1.66 2.24-1.1 3.24-2.34 4.14-3.24-.15.52-.25 1.05-.75 1.75 1.15-.3 2.4-1.8 3.14-2.59.15.85-.37 1.83-.6 2.3 1.9-.6 3.29-1.95 4.14-3.29 1.43 1.1 4.62 3.44 6.91 3.44-1.3-1.2-1.85-1.45-2.22-2.64 1.33.71 3.54 1.85 5.34 2.09-.3-.35-.35-.55-.55-1 1.6.55 2.79 1.63 3.29 2.2 1.03.85 1.65 1.81 2.06 2.8.37.08 1.02.76 1.43 1.14-.83-.05-1.88-.2-2.82.29 1.95.22 3.12.06 4.12 1.2-1.05-.19-1.75-.36-3.78-.07 1.83.41 2.98.54 4.04 1.46-2.26-.82-2.27-.61-3.82-.41 1.5.25 2.36.54 3.25 1.48-1.55-.74-3.79-1-8.08.1.17-.17.36-.57 1-.8-1.01-.04-2.11.54-2.65.97.18-.29-.01-.33.26-.55-.55.2-1.47.82-2.02 1.46-.61.21-1.67 1.05-2.09 2.17-.27.72-.17 1.43-.17 1.86-.01.78.11 2.23.24 3.08.3 2 .18 3.41.22 4.02.04.61.31 1.72.37 2.61.03.41.24 1.98-1.02 3.54.82-.61 1.62-.82 2.14-.36-1.09-.08-1.57.44-2.02.71-.52.31-.77.88-1.96.92-1.81.05-2.19-1.57-3.29-1.6-.86-.02-2.24.74-2.88-.61 0 1.57 1.46 1.73 2.12 1.89-.08 0 1.35 1.31.35 1.45-.91.13-1.92.1-3.44.82 0-.15.07-.3.07-.4-.54.15-1.29.51-1.87.8.05-.12.05-.22.18-.45-2.38.75-3.45 2.51-3.77 2.97.5-.2 1.1-.35 1.3-.2-.03.04-.06.07-.09.11-.89.33-2.65 1.63-2 4.23-.7-.85-1-1.4-1.35-2.49-.3 1.65.64 2.93.45 3.54-.47 1.52.25 3.22.64 3.98-.04-.76.26-2.13 1.5-2.38-.65 1.2-.92 3.34.15 4.34-.35-2.04.65-2.99.65-2.99s.62 1.15 2.04 1.07c-.88-1.47-1.57-3.35-1.64-4.79.01-.49.12-.96.33-1.43.3-.67 1.03-.55 1.45-.35.15-.65.85-.73 1.25-.65.46.1.77.09 1.45.2-.06-.09-.22-.27-.27-.77-.15.2-.2.46-.64.51-.25.03-.27-.15-.36-.36-.1-.26.01-.61.07-.6.26.04 1.15-.06 1.28-.06 2.16-.01 3.88.8 5.9.89.4.02 1.44.01 1.85-.05 1.07-.16.99.4.3.85a6.77 6.77 0 01-2.21.16c.52.15.86.76.75 1.25-.08.34-.32.76-.82.96-1.01.05-3.07.12-4.1-.03.36.4.93.63 1.53.76-.67.68-.78 1.57-.79 2.41-.29-.37-.34-1.34-.11-1.94-.93.98-.68 1.95-.31 2.76.12.27.03.97-.57 1.34-.97.61-2.51.62-3.47-.39 1.02 1.81 5.12 2.13 5.92-.83.3.32.5.62.5 1.72.41-.5.65-.75 1.1-1.45-1.3 3.39-.25 6.68-1 9.45-1.27-2.54-.82-4.86-.52-6.51-.67.82-1.2 2.1-1.35 5.24-.75-.97-.9-3.29-.52-5.01-1.27 1.5-1 3.74-1.05 4.49-.67-.82-.97-2.69-1.06-3.51-.71 1.77-1.07 4.47.2 6.05 1.36 1.42 5.68 1.25 7.12 1.27-6.98 1.2-8.07.22-9.94-2.24-.88-.29-1.54-.66-2.1-.96.65 1.9 3.28 6.5 7.39 8.41 7.81-6.26 12.87-6.85 17.48-10.25-2.32 2.72-4.41 3.64-6.86 4.89-3.98 2.04-19.71 12.14-24.79 25.93 7.09-10.65 21.23-16.72 25.65-17.43 8.78 2.2 11.26 7.56 15.31 9.48-1.2 3.74-7.03 6.73-9.44 11.61 3.15-2.78 10.99-8.42 12.28-7.27 1.3 1.15-4.79 5.69-5.84 8.98 4.2-2.95 5.69-2.69 10.96-7.3 6.85 3.26 6.4 5.05 7.25 8.04 1.3-.1 3.59 1.3 3.88 4.73-2.6 2.89-4.98 6.45-8.07 13.63 3.69-4.19 4.92-4.85 9.71-8.04-6.58 6.76-11.35 15.85-14.88 31.45-.21.92-2.61 9.94-2.81 10.91.82 2.34 34.32 3.39 34.52-1 .2-4.39.63-10.93.64-11.77.05-8.77-.5-15.36-2.93-26.17m-58.41-48.12s-1.35-4.12-.34-6.52c1.61 2.03.34 6.52.34 6.52m1.77-1.87s.05-2.84-.91-4.65c2.46 1.2.91 4.65.91 4.65m17.74-24.51c.65-1.65.59-2.74.37-3.53-.24.49-.75 1.45-1.17 1.85 1.25-3.14.67-4.89.35-6.51-.4-2-.39-2.43-.49-4.23-.07-1.23.25-4.54-.35-6.73 1.66 3.02 1.88 6.91 1.9 7.73.05 1.9.25 2.51.62 3.89.29 1.05 1.01 4.44-1.23 7.53m3.79-2.29c1.2-4.34.45-7.88 1.05-11.37 1.39 2.19.67 7.85-1.05 11.37m2.69-13.77s-1.2-4.64-4.94-7.18c7.01.96 4.94 7.18 4.94 7.18M243.9 9.33c-4.56.6-7.58 3.74-9.78 7.83-.44.82-1.08.84-.92 0 .51-2.7 3.25-8.36 10.7-7.83m-4.01-4.93s-3.33 3.78-3.82 1.93c-.48-1.85 3.82-1.93 3.82-1.93m-2.22 3.13s-2.73 3.52-3.34 2.32c-.87-1.71 3.34-2.32 3.34-2.32m-1.55 2.69s-1.75 3.8-2.95 2.85c-1.5-1.19 2.95-2.85 2.95-2.85m-14.64 28.15s6.96-2.4 8.03-5.7c-.02 5.63-8.03 5.7-8.03 5.7m6.06-15.72c0-1.28.38-2.46 1.02-3.4s.35-.45.68-.73c.32.2.75.67 1.42 1.25 1.5-.65 3.44-.05 3.54.2.7 1.3.79 2.88-.64 4.38-.57.6-1.68.79-3.4.38.37 1.14 1.08 1.91 2.28 1.91 1.9 0 3.44-1.83 3.44-4.09 0-1.11-.37-2.11-.97-2.85.25-.41.51-.81.78-1.21 1 1.02 1.63 2.5 1.63 4.15 0 3.08-2.19 5.59-4.89 5.59-2.7 0-4.89-2.5-4.89-5.58m6.81 12.5c-.3.3-.52.9-.6 1.42-1.57-2.92-.91-4.3-.75-5.84.6 2.32 3.07 5.16 8.53 7.26-3.29.23-5.98-1.49-7.18-2.84m10.08.9c.09.19.31 1.15.47 1.54-2.19-.29-8.57-1.77-8.78-5.06-.1-1.69.62-2.8 2.29-3.59-.51-.42-1.3-.4-2.19-.1 1.07-1.47 3.09-2.99 5.29-3.59-.65-.5-2.52-.57-3.34-.35 1.35-1.8 3.67-2.39 6.21-2.84-1.4-.5-3.59-.3-5.16.15 2-1.5 3.88-1.65 6.03-2.24-.32-.26-3.38-.47-4.02-.66 5.39-4.94 15.86.3 16.31 2.69-1.64-.93-5.57-1.61-6.43-1.31 2.93.83 5.69 2.84 6.43 5.16-1.42-1.94-3.96-3.29-6.96-3.14 2.19.8 5.26 2.07 6.68 5.59-2.2-2.49-5.31-2.88-6.29-3.09.3.23 4.24 2.14 5.29 4.39-1.8-1-2.89-1.4-4.99-1.6 2.19 1.2 5.88 3.99 6.28 7.68-1.59-3.47-4.64-4.31-5.38-4.19 1.1.86 3.99 3.79 4.61 7.23-1.42-2.34-3.04-4.71-5.68-5.39 1.5 1.6 3.96 4.12 4.42 7.71-2.47-4.64-3.55-5.31-5.44-6.36.77 1.37 2.29 3.39 2.37 5.01-1.42-2.17-2.82-3.26-4.46-3.82.45 1.16 2.34 2.63 2.48 3.89-2.31-2.2-3.42-1.92-6.04-3.71M241.43 56.62c-.29-.74.04-.94.46-.73.07.28.28.57.62.71-.35-.01-.71 0-1.08.02m.88-1c-.23 0-.41-.18-.41-.41 0-.23.18-.41.41-.41.23 0 .41.18.41.41 0 .22-.19.41-.41.41m2.28-.99c.87.13 1.36.61 1.71.93.32.3.6.72.96.99a2.08 2.08 0 00-.66.03c-.59.17-1.29.16-2.08.11.54-.77.32-1.65.07-2.06m-2.95-2.51c1.8-.67 3.3-.91 4.26-.75 1.2.2 3.03 1.12 2.13 3.44-.32.82-1.19-.31-1.91-.67-1.5-.75-3.97-1.01-5.24-.71-.2.05-.38-.07-1.01.11-.63.19.2-.83 1.77-1.42m-2.26 4.74c-.34-.18-.94-.49-.29-.87.43-.25.85-1.14 2.18-1.42-.31.46-.51 1.27-.04 2.06-.43.04-.86.1-1.3.2 2.7-.23 4.75.62 6.6.85.17.53.25 1.6-1.91 1.62 1.22.22 1.93.27 2.52.1.45-.13.64-.32.92-.5.38-.24 1.11-.66 1.64.05.12.17.4.12 1.08 1.25-.5-.25-1.37-.4-1.65-.15.75.45.97.45 1.57 1.42-.23-.37-1.66-.79-1.65-.37 1.42 1.57 1.14 3.85 1.1 4.74-.45-.25-1.1-.4-1.75-.4.62.4 1.02 1 1.21 2.4-.55-.45-1.21-1.1-2.06-1.2.75.55 1.4 1.7 1.57 2.73-.7-1.36-1.97-2.31-2.67-2.56.75.75 1.51 2.13 1.45 3.07-.95-1.75-2.67-2.79-3.12-2.72.7.45 1.5 1.57 1.5 2.24-1.57-1.35-4.56-2.9-5.24-3.08-.03-.46-.11-.83-.36-1.2-.15-.24.01-.49.25-.65.44-.29 1-1.92.44-2.96-.52-.98-2.1-2.1-2.33-2.44-.12-.18 0-.24.04-.27-.38-.22-.66-.62-.62-.96.04-.34.32-.76.92-.98m9.44 23.7c.9 1.27 2.02 3.34-.87 6.04 1.4-2.5.87-4.1.87-6.04m-9.38-14.52c0 .5-.56.97-.56.97s.04-1.42-.64-2.28c.74.11 1.2.83 1.2 1.31m-3.06-7.48c.35.9 2.04 3.54.5 5.14.1-.6-.75-5.22-.5-5.14m-1.25 15.22c-.51.17-1.52.68-2.1.71-.7.04-1.2-.12-1.77-.33-1.19-.42-1.43-.65-2.67-.39-1.13.24-2.76.38-3.9.54-.9.09-1.46-.68-1.35-.75.52.07 1.23-.35 1.91-.56 1.17-.37 2.01-.55 3.22-.51-.15.22-.39.39-.62.51 1.12.02 2.96-.32 4.14-1.12-.1.22-.3.57-.65.89.82-.21 1.66-.52 2.05-1.51.11.2.3.38.5.58.49.49 1.58 1.33 2.31 1.3-.19-.29-.29-.66-.29-.74.47.35.97.67 1.99.82-.12-.18-.21-.31-.18-.57.32.24.98.51 1.57.83.31.17.4.47-.04.49-1.38.04-2.9-.59-4.12-.19m3.01 18.16s-.26-4.05-1.76-6.3c4.25 1.81 1.76 6.3 1.76 6.3m3.57-8.59c-.54.74-1 .9-2.1 1.2-.55-.05-.79.17-1.4-.05-.45-.03-.75-.15-.95-.31.22-.49.69-1.83.13-3.17.02.71-.27 1.55-.49 2.08.03-.69.26-1.52.11-2.19.91-1.11 4.17-.63 4.84-.1 1.01.79.34 1.89-.14 2.54m3.6-9.68c-.45-2.24-3.2-2.62-6.54-4.41 2.62-.45 6.83 1.12 6.54 4.41m1.49 3.37c1.05-1.87.51-3.46.85-3.42.22.03.35 1.4.27 2.74.6-1.05.58-1.91.68-1.6.23.75.26 1.69.14 2.25-.3 1.51-.67 2.15-2.17 3.54-.24.24-.66-1.91.23-3.51m5.84 16.33c-.75 2.11-3.62 5.15-10.96 7.55 2.54-2.69 5.79-3.94 6.13-6.43-6.88 3.44-10.62 5.09-15.56 8.23 7.03-7.63 18.11-10.32 20.8-15.71.48.9.09 4.97-.41 6.36M177.08 46.89c13.72-1.35 22.54-.25 26.71 1.33 1.09.41 2.24.75 2.36 1.42 1.09-1.01-1.45-2.21-1.53-2.25-.65-.26-1.3-.44-1.53-.5-6.12-1.63-18.5-2.26-27.6-.11.41.18.86.18 1.59.11M173.52 63.43c.52 1.65 2.17 2.69 2.46 1.7.42-1.46.21-3.12-.3-5.46-.15 1.5-.82 3.59-1.5 2.69-.67-.9-1.35-3.29-4.49-3.29 3.03.6 3.42 3.08 3.83 4.36M166.56 119.77c4.32 1.7 5.6 4.83 6.61 6.4.33.52.73.83 1.11.78.48-.07.69-1.06.41-2.29-.52-2.33-2.76-5.51-8.13-4.89M145.05 150.62c-.42.45-.36.4 0 0"/><path class="st3" d="M205.58 108.49c.54-.68.36-1.91.18-3.22-.06-.41-.12-.89-.19-1.41-.13-.98-.29-2.13-.52-3.38-2.29.77-3.1-18.34-1.15-40.92.03-.33-.27-1.1-.84-1.26-2.24-.87-3.77-.47-4.38-.9-.85 9.93-1.06 18.71-.81 28.76.02 1-.01 2.35.51 3.69.29-.99.47-2.54.46-3.79-.02-7.38.63-14.71 2.9-16.88-1.01 17.37.64 33.68.64 33.68s-.85-.25-2.54-.45c-.23-1.62-.38-3.67-.58-6.87-.2-2.04-1.16-3.05-1.16-3.05.13 3.21.31 6.57.51 10.15-9.35-.75-18.55-.07-22.98.8 2.56-6.04 1.38-10.5-.25-11.05 1.24 2.74 1.22 5.13-.05 7.01-.24.44-6.12-2.58-8.89-6.7 1.29-1.37 3.81-.56 4.29-.01.32-.82.71-1.18.8-2.5.86-.56 1.11-.92 1.43-3.19.4-2.79-1.3-3.74-1.3-3.74s.94-.6 1.09-2.84c.13-2-.51-2.87-1.01-3.34 1.05-.56 1.08-1.88.75-3.34-.34-1.46-.26-2.63-1.16-3.53 1.18-2.19-1.16-5.72-2.17-6.29-1.01-.56-1.57-.71-3.25-1.48.11.98.18 2.09-.21 3.13-.07.18-.19.6-.69.68-.7.1-2.11.32-3.59.6-2.33.44-4.93 1.05-6.81.97 1.95 1.95 9.73.37 9.73.37s4.86-.52 5.19 1.12c.15.78.9 3.19-.1 3.89-1 .7-3.59.67-5.29 1.1-1.7.42-3.62 1.52-6.98 1 1.94 1.95 4.74.75 6.03.5 1.3-.25 1.99-.35 3.99-.4 2.1-.05 3.79.6 3.67 2.22-.1 1.3.38 2.51-1.37 3.47-1.1.6-2.99.23-4.76.42-1.77.2-4.19 1.5-6.58 1.27 1.57 1.55 3.27.95 6.01.5 2.74-.45 5.49-.15 5.49-.15s1.86.27 1.6 3.17c-.15 1.67-1.53 2.52-2.68 2.94-.24.04-.5.1-.82.18-1.67.45-3.34.18-5.1-.28.02.8 1.12 1.35 2.32 2.25 0 2.08-.8 3.95-1.74 5.48-1.4 1.42-3.75.29-5.38-.43 1.11 1.22 2.65 2.1 3.8 2.64-.58.73-1.07 1.31-1.27 1.68-1.05 1.87-2.15 4.29-2.83 6.01-.09-.05-.19-.1-.28-.15-4.65-2.59-8.02-9.23-8.57-14.99.42-3.52.44-2.2.27-4.72-.01-.12-1.14-1.45-1.87-3.47-1.24-1.3-2.71-2.5-4.71-2.31 0 .6.04 1.05.4 1.52.58.52 1.12 1 1.39 1.34 2.56 3.28 2.74 7.87 3.76 11.74.82 3.13 2.11 8.01 4.28 11.38 1.55 2.4 2.51 4.68 4.24 4.83.58.05 3.73.06 7.17-2.93-1.65 4.19-5.25 4.55-5.45 5.52-.93 4.5-3.74 7.24-5.87 14.13-.61 1.96-.8 7.78-6.18 14.36 2.59-.6 6.43-4.47 5.59-2.39-1.76 4.34-5.49 8.77-6.56 9.98.09-.1.2-.22.34-.36-.36 1.7-2.84 5.75-8.71 11.57 1.68-.39 4.28-2.03 5.9-3.52-.49 1.93-2.25 6.36-3.92 7.7 2.97-.56 7.27-5.79 9.99-6.84-1.69 1.49-2.87 2.81-4.18 4.28-2.93 3.26-5.86 6.7-10.58 5.57-4.18-1-6.71-2.22-8.33-5.98 3.1 10.94 12.02 9.17 13.94 9.27.88.05 2.71.51 4.82-.29 4.06-.78 8.68-4.11 11.44-6.29 3.69-2.91 7.29-2.59 10.89-5.79 2.27-2.02-2.76-.83 2.26-6.47 2-2.25 3.64-8.33 1.99-11.82-1.75-3.69-5.6-5.01-5.93-6.33-.31-1.2 2.19-.6 3.34-.45-1.35-3.29-3.74-3.34-5.24-4.44.2-7.18 2.24-13.02 2.63-20.76.09-.76.14-1.46.11-2.13-.08-1.71-1.79-3.69-2.87-4.58-.53 1.11-1.05 2.87-1.63 3.59-.46.57-.93.85-1.44.92.58-1.73 1.24-3.83 2-4.6 1.25-1.27 2.53-2.06 3.96-3.22.55-.36 1.01-.71 1.27-1.04.07-.09.13-.17.18-.25.13-.13.27-.26.4-.4-.8-.8-1.8-2.12-2-2.54-.2-.42-.3-.97 0-1.46.84 1.81 3.31 4.24 4.97 5.38.51.35 1.24.94.71 1.46.53.29.94.47 1.22.62.6.32.65.45.58.76-.58 2.53-.74 5.1-.58 5.56.07.2.32 1.05 1.46 1.38 2.99.89 9.49 1.45 15.23 1.42 6.7-.04 10.81-.45 13.92-1.05.73-.16 1.95-.56 2.29-.99m-44.05 22.41c-1.13 8.45 1.2 13.08-3.09 18.71-3.48 4.57-4.23 7.3-8.31 10.89 1.98-2.92 7.81-10.39 8.71-16.18-.68.81-3.29 3.51-5.69 3.49 2.05-1.51 5.09-2.99 6.08-8.28-1.79 4.29-5.83 6.31-8.1 7.19 5.76-4.31 6.01-9.34 6.46-11.23 1.33-5.66 1.46-4.69 2.99-9.43 1.71-5.29 2.4-10.18 2.4-10.18s-.32 6.56-1.45 15.02m27.74-22.06c-7.17 0-12.98-.47-12.98-1.05 0-.58 5.62-1.05 12.79-1.05 7.68 0 12.98.47 12.98 1.05 0 .58-5.62 1.05-12.79 1.05m13.64-2.71c-11.93-.95-18.9-.85-27.93.2-1.64.19-1.52-1.54.51-2.11 2.14-.6 6.25-.82 10.81-1.09h-.02c.93-.01 1.82-.02 2.69-.02l-.17.03c9.07.12 11.66.62 14.05.92.98.12 1.6.67 1.52 1.12-.03.31.11 1.08-1.46.95"/><path class="st3" d="M165.74 156.37c.24-.6 2.28.82 2.41.05 0 0 8.43-.62 17.56-2.37-.3-8.38 5.24-15.86 3.44-22-1.05 4.19-4.49 8.98-4.49 8.98s.6-6.73 1.05-11.37c-1.2 2.99-2.99 4.94-4.94 11.37.8-11.57 5.59-21.55.6-28.13.45 6.29-.75 12.12-2.54 16.31.94-4.96 1.26-10.27.15-16.76-.2 5.24-1.7 11.64-2.99 17.69-.29 1.36-.75 4.68-.74 5.02-1.29-2.85-4.5-4.72-7.55-5.6 6.63 6.68 4.99 12.37 3.99 15.16-.94 5.36-5.95 11.65-5.95 11.65"/></g><g class="st0"><defs><path id="SVGID_5_" d="M0 0h432.38v302.49H0z"/></defs><clipPath id="SVGID_6_"><use xlink:href="#SVGID_5_" overflow="visible"/></clipPath><path class="st4" d="M103.83 264.37l3.86-.49a868.61 868.61 0 01108.85-6.82c36 .02 72.36 2.31 108.07 6.82l3.86.49-4.29 33.94-3.85-.47c-34.35-4.21-69.3-6.35-103.9-6.36a860.36 860.36 0 00-104.47 6.34l-3.85.47-4.28-33.92z"/><path class="st4" d="M401.37 301.75a793.336 793.336 0 00-370.36 0C20.73 258.94 10.46 216.14.18 173.33a925.277 925.277 0 01432.02 0c-10.28 42.82-20.56 85.62-30.83 128.42"/><path d="M402.57 296.75a798.502 798.502 0 00-372.77 0c-9.49-39.55-18.99-79.1-28.49-118.65a920.396 920.396 0 01429.74 0c-9.49 39.54-18.99 79.09-28.48 118.65" clip-path="url(#SVGID_6_)" fill="#d90921"/><path class="st6" d="M.18 173.34a925.277 925.277 0 01432.02 0M31.01 301.75a793.336 793.336 0 01370.36 0"/><g class="st7"><defs><path id="SVGID_7_" d="M13.82 181.05h400.55v100.52H13.82z"/></defs><clipPath id="SVGID_8_"><use xlink:href="#SVGID_7_" overflow="visible"/></clipPath><path class="st8" d="M349.61 258.63s.67-2.06 1.03-3.18c.04-.14.09-.27.13-.41-.14-.03-.28-.07-.42-.1-2.4-.62-3.14-1.76-3.29-5.12-.29-7.26-1.19-24.03-1.89-36.27-.38-6.73-.69-12.18-.79-14.11-.1-2.47.21-3.95.98-4.68.49-.47 1.2-.66 2.27-.6.15.01.3.02.45.02l-.09-3.76c-.12-.02-.23-.04-.35-.05a885.7 885.7 0 00-20-2.63c-.12-.01-.24-.03-.36-.04-.03.11-.06.22-.1.33 0 0-.38 1.32-.86 2.86-.04.14-.09.28-.13.41l.44.1c1.02.22 1.68.61 2.03 1.21.54.93.42 2.44-.37 4.74-4.19 12.16-10.38 30.8-14.42 43.15-.55 1.71-1.11 3.41-1.67 5.11-1.24-.14-2.48-.27-3.72-.4-2.51-.27-4.96-.53-6.33-.66-2.93-.28-3.61-1.18-3.31-4.4.78-8.15 3.84-39.35 4.59-46.8.36-3.58 1.47-4.19 3.66-4.13.16 0 .31.01.46.01l-.03-.44c-.08-1.13-.13-2-.18-2.94 0-.11-.01-.23-.02-.34-.12-.01-.24-.02-.36-.04-6.15-.6-12.39-1.15-18.56-1.63-.33-.01-.33-.01-1.01 2.56-.09.36-.18.71-.28 1.06.15.02.3.05.45.07 2.24.35 3.19 1.1 2.89 4.58-.27 3.18-1.08 12.69-1.92 22.77-.98 11.69-2.01 24.13-2.36 28.32-.28 3.37-1.35 3.97-3.36 3.95-.15 0-.3 0-.45-.01l.03.44c.04.53.08 1.01.12 1.47.05.51.09.99.12 1.5l.03.36c.12.01.24.01.37.02 2.61.04 31.49 2.86 34.71 3.39.11.02.22.04.34.05.04-.11.07-.22.11-.33 1.33-4.23 3.85-11.83 4.4-13.45 3.06.37 7.86 1 11.84 1.54l.27 4.3c.23 3.58.44 6.98.6 9.8.01.11.01.22.02.33.11.02.22.03.33.05 5.55.77 12.24 1.77 13.39 1.94l.57.08zm-15.7-24.62c-1.7-.23-4.94-.67-8.72-1.14 2.31-6.91 4.72-13.96 7.16-21.02.56 7.48 1.08 14.92 1.56 22.16M125.25 245.25c-2.15-6.99-7.39-23.1-11.29-34.84-2.1-6.33-3.81-11.44-4.4-13.26-.74-2.36-.83-3.87-.28-4.77.35-.58 1-.94 2.02-1.15.15-.03.3-.06.44-.09l-1.08-3.61c-.12.01-.23.02-.35.04-6.69.76-13.42 1.59-20.02 2.47-.12.02-.24.03-.36.05v.35s-.02 1.36-.08 2.98c-.01.15-.01.29-.02.44.15-.01.3-.01.45-.02 1.04-.04 1.78.17 2.28.66.77.76 1.06 2.25.9 4.67-1 14.65-2.81 46.01-3.03 50.95-.16 2.83-.99 3.98-3.29 4.57-.14.03-.28.07-.43.1.05.14.1.28.14.41.43 1.29.92 2.85.92 2.85.04.11.07.22.1.33.11-.02.23-.04.35-.05 1.25-.18 6.36-.93 9.82-1.4l.33-.05c.01-.11.01-.22.02-.33.21-4.42.71-12.49.82-14.19 3.75-.51 9.63-1.23 11.84-1.49.47 1.42.95 2.84 1.43 4.25 1.12 3.37 2.19 6.56 3.05 9.21l.1.32c.11-.01.22-.03.34-.04 6.11-.73 13.46-1.44 13.59-1.45l.37-.01.03-.37s.12-1.67.19-3.03c.01-.14.01-.28.02-.43h-.43c-2.48.04-3.49-.88-4.49-4.07m-16.8-12.11c-1.7.21-4.95.6-8.73 1.1.46-7.38.94-14.81 1.46-22.13 2.47 6.98 4.9 14.05 7.27 21.03M149.16 213.01c-3.78-2.92-9.05-6.91-10.63-8.2-2.35-1.92-3.51-5.5-2.09-9.23.97-2.55 3.71-4.58 7-5.13 3.38-.55 6.99.5 8.47 1.86.63.58.92 1.25.87 2.03-.01.12-.01.24-.02.35l.36.06c.48.09.92.15 1.37.21.53.08 1.1.15 1.78.28.16.03.33.07.49.09v-.48c.04-1.91.09-4.28.14-6.55.03-1.4.06-2.8.1-4.2-.1-.03-.2-.06-.29-.09-3.17-1-7.91-1.35-12.94-.84-.78.08-10.54.56-16.53 8.55-2.36 3.15-3.03 7.91-2.66 10.91 1.08 8.71 7.38 11.97 13.43 16.07 10.46 7.15 15.67 13.61 13.27 19.66-1.83 4.62-5.84 6.07-9.68 5.79-2.56-.19-4.71-1.54-5.47-4.19-.04-.01-.23-.03-.34-.05-.71-.09-3.8-.63-3.96-.65 0 .16.01.32.01.48.06 3.47-.03 7.93.02 10.3 0 .1.09 1.67.09 1.77l.3.08c7.9 1.76 14.84.76 16.79.34 12.23-2.3 14.44-12.65 13.85-19.32-.64-7.43-5.43-12.75-13.73-19.9"/><path class="st8" d="M414.09 198.3c.11-1.78.14-2.44.26-3.93.01-.11.01-.23.02-.34l-.34-.09c-.23-.06-.63-.15-1.17-.28-4-.93-15.38-3.45-15.65-3.46l-.31-.03c-.61 1.46-1.22 2.91-1.82 4.37.15.05.29.09.44.13 3.01.9 4.16 2.09 3.11 6.7-.65 2.86-3.44 15.18-5.64 24.97-1.09 4.84-2.58 13.35-3.05 15.49-.18-.58-2.25-5.96-2.44-6.54-5.27-16.82-10.37-32.7-16.41-50.09-.03-.07-.05-.15-.08-.22-.08-.01-.16-.03-.24-.04-3.08-.59-6.17-1.18-9.25-1.74-.12-.02-.24-.04-.35-.06-.56 1.49-1.12 2.99-1.68 4.47l.44.12c3.09.82 4.24 1.92 3.36 6.6-.92 4.65-11.61 62.26-12.47 67.26-.85 4.64-2.42 5.23-5.13 4.93-.15-.01-.29-.03-.44-.05-.04 1.58-.07 3.17-.11 4.74l.34.06c4.97.89 10.15 1.86 15.39 2.9.11.02.23.04.34.07.55-1.48 1.1-2.97 1.65-4.45l-.42-.12c-2.76-.78-3.78-1.87-2.91-6.61 1.14-6.24 2.94-15.44 4.86-25.18.98-5.01 2.02-10.25 3.05-15.48 6.07 18.65 10.08 31.31 15.09 47.97 1.96 6.53 5.79 10.68 10.29 11.11 2.03.2 3.94-.45 5.24-1.78l.5-.5c-.22-.06-.46-.11-.69-.17-6.49-1.57-3.46-17.63-.97-28.34 2.62-11.53 9.6-41.28 11-47.1 1.18-4.97 2.86-5.42 5.68-4.93l.46.08c.03-.14.04-.29.05-.44M285.24 183.6c-.16-.02-.32-.03-.47-.05-3.35-.39-31.5-1.95-35.43-1.94-.16 0-.31 0-.47-.01-.03.11-.05.22-.07.33-.09.43-.18.82-.27 1.24-.11.5-.23 1.04-.36 1.68l-.09.43c.15.01.31.03.46.04 2.19.21 3.21.93 3.08 4.45-.47 12.61-1.22 31.35-1.66 42.55-.16 4.16-.34 7.26-.34 8.61-.02 4.49-2.31 4.1-5.6 4.09-.15 0-.3.01-.45.01.03.2.05.4.08.6.15 1.08.38 3.07.43 3.18.12 0 .31 0 .43.01 3.5 0 32.18 1.43 35.08 1.77.17.02.33.03.5.05-.01-.16-.03-.33-.04-.49-.11-1.2-.23-2.56-.34-3.97-.22-2.54-.45-5.27-.68-7.64-.02-.15-.03-.31-.05-.46-.43.1-.85.22-1.28.32-.79.2-1.09.28-2.17.52-.11.02-.23.05-.34.08.01.12.02.23.02.35.08.89-.08 1.53-.48 1.95-.51.53-1.43.76-2.92.72-.23 0-.46-.02-.69-.03-3.42-.21-6.21-.36-9.17-.52.08-1.63.21-4.11.37-7.07.24-4.62.55-10.42.83-15.97 4.44.23 8.89.49 13.33.79.14.01.27.02.41.02.18-2.65.36-5.31.55-7.97l-.41-.03c-4.6-.31-9.12-.57-13.43-.79.28-5.27.6-11.02.83-15.25.12-2.07.21-3.78.27-4.89 4.29.22 7.34.41 9.04.52.23.01.46.02.7.04 1.94.12 3.36.63 3.89 1.41.3.45.34 1 .09 1.68-.04.12-.09.24-.13.37l3.83 1.46c.04-.15.08-.3.11-.44.28-1.06.56-2.13.85-3.22.68-2.56 1.39-5.21 2.09-8.11 0-.12.03-.27.07-.42M201.92 241.03c-.29-1.67-.62-3.59-.84-4.88-.03-.16-.05-.31-.08-.47-.14.05-.28.11-.42.17-1.41.56-1.69.67-2.64 1.01-.1.04-.2.07-.31.11l.06.34c.13.79.19 1.74-.27 2.25-.88.96-5.43 1.23-7.44 1.3-3.09.11-7.29.22-11.55.43 2.25-7.89 4.41-15.26 6.48-22.3 3.7-12.6 7.25-24.49 10.96-37.17l.15-.53c-.17 0-.35.01-.52.01-7.68.07-32.39 1.26-35.44 1.59-.15.02-.29.03-.44.04.03.15.07.3.1.45.65 2.86 1.13 5.17 1.57 7.23.31 1.51.6 2.88.91 4.26.03.15.07.3.1.45.14-.06.27-.11.41-.17.93-.4 1.84-.76 2.75-1.12.1-.04.21-.08.31-.12l-.07-.34c-.18-.89-.1-1.54.24-2.02.63-.88 2.68-1.07 3.97-1.15 3.28-.18 5.59-.29 10.05-.49-5.92 21.5-10.8 39.43-16.22 59.7l-.15.56c.18-.01.36-.03.54-.04 7.01-.63 34.78-1.59 38.4-1.58h.67c-.03-.16-.05-.32-.08-.47-.39-2.39-.81-4.83-1.2-7.05M214.22 181.05c-8.21 0-13.6.08-14.79.16-.16.01-.32.03-.47.03l.09.45c1.13 5.69 1.78 9.08 2.26 11.55l.09.46c.15-.05.3-.1.46-.16 1.46-.5 1.67-.56 2.15-.7.42-.13.84-.26 1.27-.39-.02-.12-.05-.23-.07-.35-.17-.87-.07-1.51.33-1.98.76-.89 2.51-1.01 3.76-1.02H212.82c.76 0 1.56.01 2.56.01h.48c.01 6.18.03 24.75.04 38.15l.01 13.11c-.02 4.22-1.63 4.22-4.46 4.21-.14 0-.29.02-.44.03.21 1.24.42 2.48.62 3.72h.35c5.75-.02 14.42.03 20.16.12h.35c.02-.12.04-.22.06-.34 0 0 .32-1.9.51-2.94.03-.14.05-.29.08-.43-.15-.01-.29-.04-.45-.04-2.84-.01-4.45.03-4.44-4.25.02-4.97.13-9.94.19-14.91.17-13.15.39-30.52.47-36.38.17 0 .34.01.51.01 2.62.04 4.67.07 6.04.1 2.01.04 3.37.46 3.93 1.2.34.44.4 1.02.19 1.74l-.11.38c.13.04.26.08.38.12 1.02.31 1.49.48 2.45.81.36.12.71.24 1.05.36.04-.15.07-.31.1-.46.29-1.46.62-3.03.98-4.74.43-2.05.89-4.28 1.39-6.72l.09-.44c-.15-.01-.31-.03-.46-.04-1.96-.17-18.1-.45-31.23-.43M98.62 266.87c-5.58.89-9.81-5.11-14.33-11.48-.57-.8-1.14-1.61-1.73-2.41-7.46-10.2-9.98-13.81-19.14-27.34 3.74-11.6 9.83-27.74 9.99-28.16 2.43-6.24 3.67-9.38 7.85-10.47l.43-.11c-.54-1.5-1.07-3-1.61-4.5l-.35.06a949.07 949.07 0 00-21.35 3.75c-.12.02-.23.04-.35.07l.09 4.33c.03.14.05.28.07.42l.44-.03c1.81-.14 3.11.26 3.84 1.18 1.18 1.49 1 4.37-.53 8.56-4.48 12.37-8.1 22.96-11.4 33.22-3.34-15.68-6.76-31.48-7.27-33.8-1.02-4.7.15-5.89 3.17-6.78.15-.04.29-.08.44-.13l-.16-.41c-.5-1.23-1-2.47-1.5-3.7-.04-.11-.08-.21-.13-.32-.11.02-.23.05-.34.07-6.39 1.29-12.74 2.65-18.95 4.04l.01.02-12 2.69.68 1.59-.03.01 3.26 7.57 9.92-3.95 16.17 69.98c.9 4.24-.27 5.47-2.77 6.21-.15.04-.29.08-.43.13l1.8 4.41c.11-.02.22-.05.33-.08 5.54-1.27 9.73-2.47 14.5-3.6 2.05-.43 4.02-.84 5.79-1.2l.34-.07c-.06-1.58-.13-3.17-.19-4.76-.14.02-.29.03-.43.05-2.7.31-4.23-.23-5.22-4.95-.39-1.87-3.37-16.04-6.52-30.87 6.71 8.7 8.82 11.47 16.72 22.26 9.47 13.05 18.12 14.51 22.48 14.23 4.87-.33 7.99-2.91 8.83-5.18l.24-.64-.66.09z"/></g><path class="st4" d="M351 255.08s.67-2.06 1.03-3.19c.04-.14.09-.27.13-.4-.14-.03-.28-.07-.42-.1-2.4-.62-3.14-1.76-3.29-5.12-.29-7.26-1.19-24.03-1.89-36.27-.38-6.74-.69-12.18-.79-14.11-.1-2.47.21-3.95.98-4.68.49-.47 1.2-.66 2.27-.6.15.01.3.02.45.02l-.09-3.76c-.12-.02-.23-.04-.35-.05a885.7 885.7 0 00-20-2.63c-.12-.01-.24-.03-.36-.04-.03.11-.06.22-.1.33 0 0-.38 1.31-.86 2.86-.04.14-.09.28-.13.41l.44.1c1.02.22 1.68.61 2.03 1.21.54.93.42 2.44-.37 4.74-4.19 12.16-10.38 30.8-14.42 43.15-.55 1.71-1.11 3.41-1.67 5.11-1.24-.14-2.48-.27-3.72-.4-2.51-.27-4.96-.52-6.33-.66-2.93-.28-3.61-1.18-3.31-4.4.78-8.15 3.84-39.35 4.59-46.8.36-3.58 1.47-4.19 3.66-4.13.16 0 .31.01.46.01l-.03-.44c-.08-1.13-.13-2-.18-2.94 0-.11-.01-.23-.02-.34-.12-.01-.24-.02-.36-.04-6.15-.6-12.39-1.15-18.56-1.63-.33-.01-.33-.01-1.01 2.56-.09.36-.18.71-.28 1.06.15.02.3.05.45.07 2.24.35 3.19 1.1 2.89 4.58-.27 3.18-1.08 12.69-1.92 22.77-.98 11.69-2.01 24.12-2.36 28.33-.28 3.37-1.35 3.97-3.36 3.95-.15 0-.3 0-.45-.01l.03.44c.04.53.08 1.01.12 1.47.05.51.09.99.12 1.5l.03.36c.12.01.24.01.37.02 2.61.04 31.49 2.86 34.71 3.39.11.02.22.03.34.05.04-.11.07-.22.11-.33 1.33-4.23 3.85-11.83 4.4-13.45 3.06.37 7.86 1 11.84 1.54l.27 4.3c.23 3.58.44 6.98.6 9.8.01.11.01.22.02.33.11.02.22.03.33.05 5.55.76 12.24 1.77 13.39 1.94l.57.07zm-15.7-24.63c-1.7-.23-4.94-.66-8.72-1.14 2.31-6.9 4.72-13.96 7.16-21.01.56 7.48 1.09 14.92 1.56 22.15M126.64 241.7c-2.15-6.99-7.39-23.1-11.29-34.84-2.1-6.33-3.81-11.44-4.4-13.26-.74-2.36-.83-3.87-.28-4.77.35-.58 1-.94 2.02-1.15.15-.03.3-.06.44-.09l-1.08-3.61c-.12.01-.23.02-.35.04-6.69.76-13.42 1.59-20.02 2.47-.12.02-.24.03-.36.05v.35s-.02 1.36-.08 2.98c-.01.15-.01.29-.02.43.15-.01.3-.01.45-.02 1.04-.04 1.78.17 2.28.66.77.76 1.06 2.25.9 4.67-1 14.65-2.81 46.01-3.03 50.95-.16 2.83-.99 3.98-3.29 4.57-.14.03-.28.07-.43.1.05.14.1.28.14.41.43 1.29.92 2.85.92 2.85.04.11.07.22.1.33.11-.01.23-.04.35-.05 1.25-.19 6.36-.93 9.82-1.4l.33-.05c.01-.11.01-.22.02-.33.21-4.42.71-12.49.82-14.19 3.75-.51 9.63-1.23 11.84-1.49.47 1.42.95 2.84 1.43 4.25 1.12 3.36 2.19 6.56 3.05 9.2l.1.32c.11-.01.22-.03.34-.04 6.11-.73 13.46-1.44 13.59-1.45l.37-.01.03-.37s.12-1.67.19-3.03c.01-.14.01-.28.02-.43h-.43c-2.48.05-3.49-.87-4.49-4.05m-16.79-12.11c-1.7.2-4.95.6-8.73 1.1.46-7.38.94-14.81 1.46-22.13 2.46 6.98 4.9 14.04 7.27 21.03M150.55 209.45c-3.78-2.93-9.05-6.91-10.63-8.2-2.35-1.93-3.51-5.5-2.08-9.23.97-2.56 3.71-4.58 7-5.13 3.38-.55 6.99.5 8.47 1.86.63.58.92 1.26.87 2.03-.01.12-.01.24-.02.35l.36.06c.48.09.92.15 1.37.21.54.08 1.1.15 1.79.28l.49.09c0-.16.01-.32.01-.48.04-1.91.09-4.28.14-6.55.03-1.4.06-2.8.1-4.2-.1-.03-.2-.06-.29-.09-3.17-1-7.91-1.35-12.94-.84-.78.08-10.55.56-16.53 8.55-2.36 3.15-3.03 7.91-2.66 10.91 1.08 8.71 7.38 11.97 13.42 16.07 10.47 7.15 15.67 13.61 13.28 19.66-1.83 4.62-5.84 6.08-9.68 5.79-2.56-.19-4.71-1.54-5.46-4.19-.04-.01-.23-.03-.34-.05-.71-.09-3.8-.63-3.96-.65 0 .16.01.32.01.48.06 3.47-.03 7.93.02 10.3 0 .1.09 1.67.09 1.77l.3.08c7.9 1.76 14.84.76 16.79.34 12.23-2.3 14.44-12.65 13.85-19.32-.68-7.42-5.46-12.74-13.77-19.9"/><path class="st4" d="M415.48 194.75c.11-1.78.14-2.44.26-3.93.01-.12.01-.23.02-.34l-.34-.09c-.23-.06-.63-.15-1.17-.28-4-.93-15.38-3.44-15.65-3.46l-.31-.03c-.61 1.46-1.22 2.91-1.82 4.37.15.04.29.09.44.13 3.01.9 4.16 2.09 3.11 6.7-.65 2.86-3.44 15.18-5.64 24.97-1.09 4.84-2.58 13.35-3.05 15.5-.18-.58-2.25-5.96-2.44-6.54-5.27-16.82-10.37-32.7-16.41-50.09-.03-.07-.05-.15-.08-.22-.08-.01-.16-.03-.24-.04-3.08-.59-6.17-1.18-9.25-1.74-.12-.02-.24-.04-.35-.06l-1.68 4.47.44.12c3.09.82 4.24 1.92 3.36 6.6-.92 4.65-11.61 62.26-12.47 67.26-.85 4.64-2.42 5.24-5.13 4.93-.15-.01-.29-.03-.44-.05-.04 1.58-.07 3.17-.11 4.74l.34.06c4.97.89 10.15 1.86 15.39 2.9l.34.06c.55-1.48 1.1-2.97 1.65-4.46l-.42-.12c-2.76-.78-3.78-1.87-2.91-6.61 1.14-6.24 2.94-15.44 4.86-25.18.98-5.01 2.02-10.25 3.05-15.48 6.07 18.65 10.08 31.3 15.09 47.97 1.96 6.53 5.79 10.68 10.29 11.11 2.03.2 3.94-.45 5.24-1.78l.5-.5c-.22-.06-.46-.11-.69-.17-6.49-1.57-3.46-17.63-.97-28.34 2.62-11.53 9.6-41.28 11-47.1 1.18-4.97 2.86-5.42 5.68-4.93l.46.08c.03-.13.04-.28.05-.43M286.63 180.05c-.16-.02-.32-.03-.47-.05-3.35-.39-31.5-1.94-35.43-1.94-.16 0-.31 0-.47-.01-.03.11-.05.22-.07.33-.09.43-.18.82-.27 1.24-.11.5-.23 1.03-.36 1.68l-.09.44c.15.01.31.03.46.04 2.19.21 3.21.93 3.08 4.45-.47 12.61-1.22 31.35-1.66 42.55-.16 4.16-.34 7.26-.34 8.61-.02 4.49-2.31 4.1-5.6 4.09-.15 0-.3.01-.45.01.03.2.05.4.08.6.15 1.08.38 3.07.43 3.18h.43c3.5 0 32.18 1.43 35.08 1.77.17.02.33.03.5.05-.01-.16-.03-.33-.04-.49-.11-1.2-.23-2.56-.34-3.97-.22-2.54-.45-5.27-.68-7.64-.02-.15-.03-.31-.05-.46-.43.11-.85.22-1.28.32-.79.2-1.09.28-2.17.53-.11.02-.23.05-.34.08.01.12.02.23.02.35.08.89-.08 1.53-.48 1.95-.51.53-1.43.76-2.92.72l-.69-.03c-3.42-.21-6.21-.36-9.17-.52.08-1.63.21-4.11.37-7.07.24-4.62.55-10.42.83-15.97 4.44.23 8.89.49 13.33.79.14.01.27.02.41.02.18-2.65.36-5.31.55-7.97l-.41-.03c-4.6-.3-9.12-.57-13.43-.79.28-5.27.6-11.02.83-15.25.12-2.07.21-3.78.27-4.89 4.29.22 7.34.41 9.04.52.23.01.46.03.7.04 1.94.12 3.36.64 3.89 1.41.3.45.34 1 .09 1.68-.04.12-.09.24-.13.37l3.83 1.46c.04-.15.08-.3.11-.45.28-1.06.56-2.13.85-3.21.68-2.56 1.39-5.21 2.09-8.11 0-.14.04-.29.07-.43M203.31 237.48c-.29-1.67-.62-3.59-.84-4.88-.03-.16-.05-.31-.08-.47-.14.05-.28.11-.42.16-1.41.56-1.69.67-2.64 1.01-.1.04-.2.07-.31.11l.06.34c.13.79.19 1.74-.27 2.24-.88.96-5.43 1.23-7.44 1.3-3.09.11-7.29.22-11.55.43 2.25-7.89 4.41-15.26 6.48-22.3 3.7-12.6 7.25-24.49 10.96-37.17l.15-.53c-.17 0-.35 0-.52.01-7.68.07-32.39 1.26-35.44 1.59-.15.02-.29.03-.44.04.03.15.07.3.1.45.65 2.86 1.13 5.17 1.57 7.23.31 1.51.6 2.88.91 4.26.03.15.07.3.1.45.14-.06.27-.11.41-.17.93-.39 1.84-.76 2.75-1.12.1-.04.21-.08.31-.12l-.07-.34c-.18-.89-.1-1.54.24-2.02.63-.88 2.68-1.07 3.97-1.15 3.28-.18 5.59-.29 10.05-.49-5.92 21.5-10.8 39.44-16.22 59.7l-.15.56c.18-.01.36-.03.54-.04 7.01-.63 34.78-1.59 38.4-1.58h.67c-.03-.16-.05-.32-.08-.47-.39-2.38-.81-4.82-1.2-7.03M215.61 177.5c-8.21 0-13.6.08-14.79.16-.16.01-.32.03-.47.04l.09.45c1.13 5.69 1.78 9.08 2.26 11.55l.09.47c.15-.05.3-.1.46-.16 1.46-.5 1.67-.56 2.15-.7.42-.13.84-.26 1.27-.39-.02-.12-.05-.23-.07-.35-.17-.87-.07-1.52.33-1.98.76-.89 2.51-1.01 3.76-1.02H214.21c.76 0 1.56.01 2.56.01h.48c.01 6.18.03 24.75.04 38.15l.01 13.11c-.02 4.22-1.63 4.22-4.46 4.21-.14 0-.29.02-.44.03.21 1.24.42 2.48.62 3.72h.35c5.75-.02 14.42.02 20.16.12h.35c.02-.12.04-.22.06-.34 0 0 .32-1.9.51-2.94.03-.14.05-.29.08-.43-.15-.01-.29-.04-.45-.04-2.84-.01-4.45.02-4.44-4.25.02-4.97.13-9.94.19-14.91.17-13.15.39-30.52.47-36.38.17 0 .34.01.51.01 2.62.04 4.67.07 6.04.1 2.01.04 3.37.46 3.93 1.2.34.44.4 1.02.19 1.74l-.11.38c.13.04.26.08.38.12 1.02.31 1.49.48 2.45.81.36.12.71.24 1.05.37.04-.15.07-.31.1-.46.29-1.46.62-3.03.98-4.74.43-2.05.89-4.28 1.39-6.72l.09-.44c-.15-.02-.31-.03-.46-.04-1.96-.21-18.1-.48-31.23-.46M100.01 263.32c-5.58.89-9.81-5.11-14.33-11.48-.57-.8-1.14-1.6-1.73-2.41-7.46-10.19-9.98-13.81-19.14-27.34 3.74-11.6 9.83-27.74 9.99-28.16 2.43-6.24 3.67-9.38 7.85-10.47l.43-.11c-.54-1.5-1.07-3-1.61-4.51l-.35.06a949.07 949.07 0 00-21.35 3.75c-.12.02-.23.04-.35.07l.09 4.33c.03.14.05.28.07.42.15-.01.29-.02.44-.04 1.81-.14 3.11.26 3.84 1.18 1.18 1.49 1 4.37-.53 8.56-4.48 12.37-8.1 22.96-11.4 33.22-3.34-15.68-6.76-31.47-7.27-33.8-1.02-4.7.15-5.89 3.17-6.78.15-.04.29-.08.44-.13l-.16-.41c-.5-1.23-1-2.47-1.5-3.71-.04-.1-.08-.21-.13-.31-.11.02-.23.05-.34.07-6.39 1.3-12.74 2.65-18.95 4.04l.01.02-12 2.69.68 1.59-.03.01 3.26 7.57 9.92-3.95 16.17 69.98c.9 4.24-.27 5.47-2.77 6.21-.15.04-.29.08-.43.13l1.8 4.41c.11-.03.22-.05.33-.08 5.54-1.27 9.73-2.47 14.5-3.6 2.05-.43 4.02-.84 5.79-1.19l.34-.07c-.06-1.58-.13-3.17-.19-4.76-.14.02-.29.03-.43.05-2.7.31-4.23-.23-5.22-4.95-.39-1.87-3.37-16.04-6.52-30.87 6.71 8.7 8.82 11.47 16.72 22.27 9.47 13.05 18.12 14.51 22.48 14.23 4.87-.33 7.99-2.91 8.83-5.18l.24-.64-.66.09z"/><path class="st7" d="M320.8 293.98l3.31-26.24a861.67 861.67 0 00-215.94 0c1.1 8.74 2.21 17.47 3.31 26.21a862.302 862.302 0 01209.32.03"/><path class="st4" d="M117.79 273.58l2.79-.31c.81-.09 1.43-.11 1.87-.07.44.04.87.17 1.29.39.95.48 1.71 1.29 2.28 2.41.44.85.72 1.82.84 2.9.17 1.54-.01 2.91-.53 4.12-.54 1.26-1.4 2.08-2.58 2.46-.34.1-.87.2-1.59.28l-2.99.33-1.38-12.51zm3.16 10.29l1.26-.14c.69-.08 1.21-.28 1.56-.62.46-.44.79-1.08.98-1.92.15-.68.18-1.36.11-2.04-.12-1.06-.45-1.97-1.01-2.75-.51-.71-1.11-1.11-1.79-1.19-.24-.03-.52-.03-.84.01l-1.2.13.93 8.52zM128.76 272.38l2-.2.81 8.26c.02.27.11.61.27 1.01.2.51.56.88 1.08 1.13.34.17.71.23 1.1.19.7-.07 1.24-.41 1.63-1.04.14-.23.24-.58.3-1.05.03-.27.04-.49.02-.67l-.8-8.26 2-.2.81 8.29c.13 1.35-.17 2.48-.91 3.4-.71.88-1.66 1.38-2.85 1.5-1.3.13-2.41-.24-3.31-1.11-.77-.75-1.22-1.74-1.34-2.96l-.81-8.29zM150.01 270.47l1.05 12.55-2.06.17-.6-7.25-2.24 7.48-3.45-7.01.6 7.25-2.05.17-1.04-12.55 2.08-.17 3.41 6.92 2.23-7.39zM156.65 270l2.14-.15 5.06 12.27-2.08.14-1.45-3.46-4 .27-.95 3.62-2.08.14 3.36-12.83zm.22 7.03l2.63-.18-1.58-3.79-1.05 3.97zM173 269.01l4.52-.21c.65-.03 1.18.03 1.59.17.58.2 1.06.53 1.44 1 .44.55.68 1.17.71 1.86.04.76-.17 1.44-.63 2.05-.21.28-.56.56-1.03.83.62.26 1.08.59 1.4.99.53.65.81 1.35.84 2.1.04.85-.24 1.64-.84 2.37-.5.6-1.11.98-1.82 1.13-.16.03-.44.06-.83.07l-4.78.22-.57-12.58zm2.24 4.97l1.97-.09c.54-.02.98-.17 1.31-.45.21-.18.39-.41.52-.71.11-.26.16-.52.15-.78-.02-.47-.25-.81-.68-1.02-.2-.1-.53-.13-1-.11l-2.41.11.14 3.05zm.25 5.51l2.39-.11c.6-.03 1.09-.18 1.46-.45.32-.25.47-.61.45-1.08-.03-.66-.36-1.2-1.01-1.61-.4-.25-.9-.37-1.48-.34l-1.97.09.16 3.5zM184.18 268.52l3.67-.12c.65-.02 1.15-.01 1.51.04.36.05.69.14 1.01.29.64.31 1.15.75 1.53 1.32.36.55.55 1.16.57 1.81.03.9-.23 1.69-.79 2.38-.21.26-.54.52-.99.78l2.33 5.81-2.14.07-2.17-5.39-2.29.07.18 5.46-2.01.06-.41-12.58zm2.18 5.05l2.5-.08c.31-.01.53-.04.66-.09.66-.28.97-.76.95-1.45-.02-.58-.27-1.01-.75-1.3-.29-.18-.63-.26-1.01-.25l-2.45.08.1 3.09zM199.24 267.85c.95-.02 1.79.25 2.53.8.74.54 1.27 1.43 1.6 2.66.24.9.38 1.9.4 2.99.04 2.05-.28 3.65-.97 4.81-.34.58-.84 1.04-1.51 1.38-.55.28-1.15.43-1.8.44-.96.02-1.8-.25-2.54-.79-1.28-.95-1.95-2.86-2-5.74-.02-1.27.11-2.4.4-3.4.34-1.14.9-1.98 1.7-2.5.66-.42 1.39-.63 2.19-.65m.01 1.98c-.44.01-.82.13-1.15.37-.42.3-.74.94-.94 1.9-.15.72-.22 1.47-.21 2.27.04 1.82.36 3.14.97 3.94.13.17.33.32.59.44.29.14.61.2.95.19.44-.01.82-.13 1.15-.37.42-.3.73-.93.94-1.9.15-.71.22-1.49.2-2.33-.02-1.03-.16-1.95-.41-2.74-.24-.77-.58-1.27-1.02-1.51a2.2 2.2 0 00-1.07-.26M205.53 267.98l2-.01 1 6.66 1.62-6.67 1.85-.01 1.7 6.65.92-6.67 1.99-.01-1.72 12.6-1.79.01-2-8.02-1.9 8.04-1.78.01zM221.89 267.96l2.15.02 4.11 12.62-2.08-.02-1.18-3.56-4.01-.03-1.22 3.54-2.09-.02 4.32-12.55zm-.32 7.03l2.64.02-1.29-3.9-1.35 3.88zM230.67 268.05l3.67.08c.64.02 1.15.06 1.5.12.36.07.69.18.99.34.63.34 1.11.81 1.46 1.4.33.57.49 1.18.48 1.84-.02.9-.32 1.68-.92 2.33-.22.25-.56.49-1.03.73l2.01 5.93-2.14-.05-1.88-5.5-2.29-.05-.12 5.46-2.01-.04.28-12.59zm1.9 5.16l2.5.05c.31.01.54-.01.66-.06.67-.24 1.01-.71 1.03-1.4.01-.58-.21-1.03-.68-1.34-.28-.2-.61-.3-.99-.31l-2.46-.05-.06 3.11zM241.47 268.3l2.01.07-.29 8.3c-.01.27.04.62.13 1.04.13.53.44.95.93 1.26.32.21.68.32 1.07.33.7.02 1.29-.25 1.76-.82.17-.21.32-.54.43-1 .06-.26.1-.48.11-.66l.29-8.29 2.01.07-.29 8.32c-.04 1.35-.49 2.43-1.35 3.25-.82.78-1.83 1.16-3.02 1.11-1.31-.04-2.35-.56-3.13-1.54-.67-.84-.98-1.88-.94-3.12l.28-8.32zM267.74 272.06l-1.86.43c-.16-.38-.32-.67-.5-.87a1.67 1.67 0 00-1.23-.61c-.63-.03-1.13.18-1.52.64-.29.34-.45.72-.47 1.15-.03.48.18.85.61 1.1.27.15.56.26.87.32l.61.12c1.14.23 2.01.64 2.59 1.25.38.39.65.87.83 1.44a3.93 3.93 0 01-.39 3.25c-.79 1.33-1.98 1.95-3.56 1.86-1.39-.08-2.53-.69-3.44-1.83-.38-.47-.67-1.03-.9-1.67l1.82-.6c.63 1.34 1.52 2.04 2.64 2.1.56.03 1.03-.11 1.4-.41.39-.32.61-.76.64-1.31.03-.49-.1-.93-.39-1.33a1.89 1.89 0 00-.94-.69c-.16-.05-.4-.11-.71-.17-.79-.16-1.33-.29-1.61-.4-.68-.25-1.2-.66-1.56-1.23-.37-.6-.53-1.24-.49-1.91.05-.82.36-1.58.93-2.29a3.797 3.797 0 013.13-1.36c.98.06 1.8.43 2.47 1.11.47.45.81 1.1 1.03 1.91"/><path transform="rotate(-86.267 271.485 276.031)" class="st4" d="M265.2 275.03h12.59v2.01H265.2z"/><path class="st4" d="M276.02 270.03l7.3.54-.15 2-5.3-.39-.22 3.05 3.64.28-.15 2-3.64-.27-.26 3.49 5.66.41-.15 2.01-7.66-.57zM286.01 270.78l3.66.32c.64.06 1.14.13 1.49.22.35.09.67.22.97.4.6.38 1.06.88 1.36 1.5.29.59.41 1.22.36 1.86-.08.9-.43 1.65-1.07 2.27-.24.23-.6.45-1.07.66l1.62 6.05-2.13-.18-1.52-5.61-2.28-.2-.47 5.44-2-.17 1.08-12.56zm1.56 5.27l2.49.21c.31.03.54.02.67-.02.68-.2 1.06-.64 1.11-1.33.05-.58-.15-1.04-.59-1.38a1.8 1.8 0 00-.97-.37l-2.44-.21-.27 3.1zM297.01 271.76l3.71.37c1.05.1 1.76.23 2.15.38.7.27 1.27.78 1.7 1.53.4.68.56 1.4.48 2.15-.09.89-.47 1.64-1.13 2.25-.77.71-1.73 1.01-2.9.89l-2.72-.27-.54 5.42-2-.2 1.25-12.52zm1.5 5.3l2.41.24c.55.05.97.02 1.27-.09.52-.21.81-.61.87-1.2.04-.42-.08-.8-.35-1.15-.28-.37-.77-.59-1.44-.65l-2.45-.24-.31 3.09zM314.72 276.13l-1.9.43c-.31-.97-.92-1.51-1.85-1.62-1.7-.19-2.72 1.23-3.06 4.25-.33 3.02.35 4.62 2.05 4.81.93.1 1.65-.29 2.16-1.17l1.76.84a4.18 4.18 0 01-1.18 1.45c-.91.69-1.94.97-3.07.85-1.56-.17-2.66-1.03-3.32-2.57-.47-1.11-.6-2.59-.4-4.43.22-1.97.73-3.45 1.52-4.43.97-1.21 2.18-1.74 3.64-1.57.77.09 1.48.36 2.11.83.77.57 1.28 1.35 1.54 2.33"/></g></g></switch></svg>